<?xml version="1.0" encoding="UTF-8"?>
<svg id="Layer_1" xmlns="http://www.w3.org/2000/svg" version="1.1" viewBox="0 0 1480 829">
  <!-- Generator: Adobe Illustrator 29.3.0, SVG Export Plug-In . SVG Version: 2.1.0 Build 146)  -->
  <defs>
    <style>
      .st0 {
        fill: #94c9fc;
      }

      .st1 {
        fill: #f8fa8a;
      }

      .st2 {
        fill: #fbfafa;
      }

      .st3 {
        fill: #cebeaa;
      }

      .st4 {
        fill: #fdf1c0;
      }

      .st5 {
        fill: #080909;
      }

      .st6 {
        fill: #f3e8ba;
      }

      .st7 {
        fill: #a37f7f;
      }

      .st8 {
        fill: #c1e0fb;
      }

      .st9 {
        fill: #0f1010;
      }

      .st10 {
        fill: #121212;
      }

      .st11 {
        fill: #c3e1fd;
      }

      .st12 {
        fill: #63b94b;
      }

      .st13 {
        fill: #fefefe;
      }

      .st14 {
        fill: #adaea9;
      }

      .st15 {
        fill: #a29178;
      }

      .st16 {
        fill: #c3e2fe;
      }

      .st17 {
        fill: #bad8f1;
      }

      .st18 {
        fill: #b89a79;
      }

      .st19 {
        fill: #c0def8;
      }

      .st20 {
        fill: #7a6f7d;
      }

      .st21 {
        fill: #9d7f5d;
      }

      .st22 {
        fill: #fdfefe;
      }

      .st23 {
        fill: #0e0e0e;
      }

      .st24 {
        fill: #b4cfe6;
      }

      .st25 {
        fill: #fdfdfd;
      }
    </style>
  </defs>
  <path class="st13" d="M1208,543c.22,5.07,4.28,17.44,9.46,18.05,5.59.66-.5-5.81-1.64-8.37-1.32-2.95-2.94-6.38-2.81-9.69,2.66.05,5.34-.07,8,0,5.13,6.08,11.24,11.18,15.5,18h39l1.5,263c-7.82-.22-15.33-1.33-23.54-1.04-9.72.34-25.94,4.24-34.18,3.77-3.01-.17-6.2-4.69-8.28,2.28h-443c.56-3.23-1.63-1.68-3.49-1.96-9.16-1.39-24.18-.92-31.76-3.28-5.12-1.59-7.91-7.45-13.73-6.77,2.04-11.52,3.08-21.72,2.98-33.47-.21-27.19-2.54-55.48-3.04-82.97-.53-29.65,1-59.46.08-89.08-.07-2.42-1.19-4.72-1.13-6.97.21-7,12.03-.29,10.09-8.49l-10,1c-.4-3.63-.6-7.38-1-11.01,13.21-1.82,9.5-8.02,10-18,.11-2.2-.07-4.34.9-6.42.69-1.11,2.05-.52,3.1-.58,5.29-.32,10.75.68,15.99-.51l11.01-11.49c36.02,7.59,50.18.29,84-1,1-.04,2,.03,3,0-.83,2.88-2.47,11.84.62,12.88l3.38.12c-.3-4.45-.06-7.77,1-12l30,4c-3.27,3.15-6.19,6.14-10.99,7.01.21,1.71,5.4,1.17,6.54,1.03,5.58-.65,8.32-3.59,11.45-8.05l79.49-3.01c23.19-2.06,46.34-5.47,69.51-6.99,18.89,12.18,43.89,13.93,65.44,7.94,3.48-.97,16.24-7.18,17.97-7.01.83.08.78,4.05,4.94,3.11l4.64-6.05c26.82,2.84,52.11,1.6,79,2Z"/>
  <path class="st16" d="M340,0c11.8,3.22,25.41,7.59,37.52,8.98,25.19,2.9,52.57-.08,77.94,4.06,7.35.14,14.74-.3,22.08-.08,82.95,2.46,165.9,5.83,249,2.08L943,0h370l-3.95,11.43c4.36,4.66,5.32-1.75,5.96-5.43,2.53-1.94,5.73,17.61,5.99,19-7.61,2.88-20.41,6.7-26.04,12.46-13.87,14.19-6.38,38.51,13.37,40.42,7.44-8.87,7.34-22.1,1.67-31.86l14-3.01,1,51c-.11-1.36-1.49-4.28-1.62-6.68-.14-2.73,1.29-6.27.62-9.33l-15.8,1.21c-1.57.9-16.3,30.2-16.28,32.31.04,5.26,10.76,9.47,14.56,12.5s7.15,7.21,10.04,10.97c2.12.34,1.18-.33,1.59-1.38,1.8-4.63,3.32-9.96,7.9-12.62.31,13.64-.25,27.36,0,41l-3-1.5c3.36,33.13-12.7,61.75-28.95,88.99,5.6,12.17,6.7,24.71,5.94,37.99-.26,4.49-2.56,9.37-1.95,13.93.45,3.35,4.42,9.1,5.5,13.55,2.18,8.97,1.81,16.46-.82,25.25-1.13,3.79-6.77,13.19-6.8,15.26-.05,3.57,6.01,12.29,6.82,18.28,2.65,19.57-6.14,41.54-13.74,59.24-1.18.06-2.21.88-3,1-6.25.92-9.08,1.72-15,4-.88.34-2.31.12-3.69.76-5.42,2.51-11.66,7.53-15.31,12.24-.23-.11-3.6-.13-4,0-2.38-1.85-6.04-2.01-9-2-12.45-8.17-25.45-12.04-40.48-10.98-2.98.21-7.67,2.24-10.01,1.99s-7.24-7.06-9.54-.49l-.02,1.9,2.04,1.58c-3.15.7-7.03,1.82-9.99,3.01l-160-5c-4.59-.44-8.28-.83-13-1-29.42-1.04-59.88.18-89,1,50.75-4.65,101.17-13.06,152-17,36.8-2.85,83.88-.29,121.46,1.04,15.86.56,35.44-4.52,41.56,14.96,1.33.97,7.93-6.83,8.48-8.02,2.59-5.55-4.68-13.27-7.02-17.96-7.8-15.66-9.17-23.96-1.36-40.4,2.19-4.61,12.09-16.97,12.72-19.35s-1.6-6.78-1.84-9.78c-.82-10.45.85-19.27,4.79-28.86-18.1-16.12-18.01-37.7-8.28-58.62,1.65-3.55,7.56-11.18,8.24-13.76.92-3.45-.16-7.92.35-11.65,2.31-16.99,14.06-33.25,18.21-48.79.64-2.4.91-4.73.75-7.21-12.9-4.62-26.99-5.72-39.06-12.61-.24-25.99-1.26-57.05-6.03-82.52-.49-2.64,1.1-2.77-2.97-2.48-.08-4.72-1.67-8.99-.91-14.41.61-4.33,3.34-6.76,4.4-10.6-63.31,5.79-126.52,8.48-190.03,9.97-2.37.06-4.55,1.04-6.92,1.08l-64.88-.08c-3.43,6.86-10.21,13.1-18.14,14.07-29.07,3.56-65.21-4.35-95.07-1.99l-109.46-6.03c4.67,6.23,12.47,16.84,12,24.99-9.8-3.71-5.25,18.87-5,25-3.2,2.38-5.67,5.49-6.06,9.44-1.13,11.31.95,24.52.07,36.05l5.99,63.51c-.02,1.67.02,3.33,0,5-.27,25.52-1.21,51-1.04,76.54l4.04,28.46c.41,28.12-.87,56.42-.04,84.53.09,3.12,2.01,6.69,2.04,8.47.05,3.07-3.39,9.37-2.49,13.01l66.49-11.01,28,7c-6.17.22-11.41,1.69-16,6-4.71,2.59-35.47.95-37,2-5.27-8.85-23.53-4.56-32-2-14.89-2.73-31.66-.19-35,17-14.46,9.96-19.9,16.1-21,34-.51,8.36.04,10.85,2,19,1.18,4.88,1.3,9.92,5,14-7.15,3.22-16.03,5.12-23,8,1.34-11.86.23-26.58,3-38,.93-3.82,8.25-14.85,2-16,2.75-26.75,13.6-53.76,14.99-80.51.91-17.53-2.44-36.03-3.99-53.49,5.8-31.56,6.73-45.77-5-76,4.54-42.04-4.93-84-5.01-126l-24.99,8.5c6.88,2.72,14.47,9.57,15.76,17.23s.52,19.28-7.76,22.26c.46-2.81.68-9.88-3.48-9.98-7.79,5.26-15.01,8.07-24.52,8.97l3-7.47c-2.57-3.53-3.65.48-5.99,1.48.21-4.08.41-15.08-4.52-16.02-11.34-2.15-18.02,18.45-30.76,15.79-10.43-2.17-17.6-19.91-23.37-20.53-9.53-1.01-27.8,27.96-42.65,24.53-8.44-1.95-8.46-20.73-16-18.64-3.18.88-17.5,18.59-22.22,21.86-16.78,11.62-17.96-24.97-28.09-25.99-10.77-1.08-29.39,24.92-39.93,28.99l-.9-1.93c-5.36,2.68-4.21-.25-5.97-2.71-3.28-4.58-3.16-8.47-5.76-12.73-9.73-15.91-27.46.38-37.86,7.36l-26,6c.32-.84.21-2.29.77-3.68,1.71-4.2,8.6-16.02,9.05-19.04.2-1.3-.09-3.02-1.35-3.28-3.51-.73-17.32,16.83-21.48,19-1.08-26.38-1.01-53.09-3.01-79.49-1.37-18.06-4.74-36.01-5.98-54.02-.5-7.18.53-14.89.03-22.03-.37-5.29-.37-11.39-6.6-12.4-20.28-3.3-46.94,1.25-67.44,3.94-.79-9.63.15-17.16,6-25h79ZM482,137.01c-23.65-2.57-47.8,2.84-71.5,4l-18.5,2.98c29.6.66,58.98-3.59,88.52-4.98l1.48-2ZM1322.99,159c-.6-5.45-1.49-13.74-3.93-18.56-.73-1.44-.92-2.84-3.05-2.44-.29,7.3,1.13,15.93,6.98,20.99ZM346,163h18.5c3.37-7.41,8.05-14.94,16.49-17.01.27-1.58-1.41-1.05-2.52-1.03-7,.1-15.09,2.32-22.24,2.78l-10.23,15.27Z"/>
  <path class="st16" d="M1438,0c.71,9.6,4.68,6.59,10.82,8.68,24.94,8.48,23.5,35.45,8.25,52.68,9.64,8.13,13.77,19.81,7.93,31.63,5.25.32,9.86-2.29,15,0v82c-.87,3.26-2.09,9.29-2.08,12.5.03,9.41,1.94,19.56,1.08,29.5-1.76,20.25-16,34.66-29.47,48.03-3.24,3.22-8.11,5.31-9.54,10.46,8.08,2.78,15.75,10.39,16.93,19.1.64,4.76-.67,9.71.56,14.44,1.29,4.98,6.38,12.39,8.29,17.71,1.43,3.96,1.69,9.83,2.75,12.25,1.68,3.79,7.93,6.41,9.8,14.2,5.46,22.71-12.8,36.71-30.32,46.34,7.68,9.28,13.18,12.62,12.04,26.02-.5,5.91-4.39,9.74-4.84,13.17-.53,4,1.55,9.5.36,15.34s-5.59,8.56-8.57,13.43c12.03,2.57,25.01,8.07,29.29,20.73,8.11,23.99-16.69,38.58-35.16,46.91l1.98,9.77c5.31.82,9.94-1.46,15.31-.81,10.7,1.3,18.83,9.83,21.58,19.91v9c-4.8,17.64-22.08,20.81-38,23,.42,3.98,3.57,6.19,5.05,10.45,2.26,6.5,2.25,12.4-.26,18.84-1.17,3-6.22,8.03-5.69,10.01,6.56,6.64,9.91,14.03,9.06,23.54,15.7,4.83,22.63,22.23,15.02,36.84-3.73,7.16-10.09,10.95-16.08,15.81,5.42,6.51,6.93,13.56,5.82,21.92-2.68,20.09-33.73,29.95-47.91,40.58,24.36.96,48.86-3.41,73,1.01v47c-4.91-.26-8.59,5.03-13,7h-130c-2.14-17.95-2.06-35.93-2-54,5.09-11.22,11.61-18.76,21.1-26.4,2.09-1.68,12.46-8.24,12.89-9.11.77-1.56-.69-1.37-1.27-1.71-11.2-6.6-20.1-10.86-19.8-26.29.21-10.61,5.5-11.82,9.5-18.56,1.66-2.81,2.46-7.13,4.41-10.59,2.21-3.93,5.59-6.36,7.16-10.33-13.96,1.93-24.09-5.88-27.99-19.01l2-15c9.05-15.21,29.52-16.08,42.86-26.6l-1.82-4.95c-24.66.51-35.31-24.2-20.06-42.88-8.96-5.77-13.14-14.36-11.98-25.08,1.87-17.36,24.92-24.78,37.99-31.99-5.46-3.17-10.1-7.31-13.7-12.54-11.62.39-22.51,7.92-34.29,4.03v-1c16.49-11.85,25.72-29.21,38.02-44.48,5.19-6.45,15.54-20.03,24.96-16,1.9.81,7.72,8.67,8.27,10.76.9,3.38-1.75,10.18,4.23,11.71,5.99-8.52-5.71-27.64-15-28.06-5.98-.27-12.86,4-17.01,8.04-16.58,16.13-23.96,35.61-43.48,51.02l-4-37c8.1-.06,13.97-3.37,16.99-10.99-6.59.83-11.92-1.03-17.99-3.01-.7-13.75-.89-27.23-1-41l37-17.01c-4.13-3.43-9.05-4.33-13.04-8.45-6.07-6.26-9.51-17.33-8.83-25.92.52-6.6,3.75-11.63,5.87-17.62-7-.1-12.99,1.9-20,0-.41-38.4-5.18-76.63-6-115l50-42h-30.5c-1,0-6.94-1.13-8.56-1.44-3.82-.74-7.26-2.46-10.94-3.56-.29-17.07-.61-34.01-1-51l7.01-6.49-7.01-5.51c-.07-2.66-1-6.15-1-7.5v-40c0-4.63-1.48-12.49-2-17.5,4.66-3.4,8.02-10.87,8.11-16.58.03-2-1.05-2.97-1.11-3.42-.04-.33.05-.68,0-1l42-18h62ZM1431,190l-46.93,44.36c4.61,4.49,8.02,8.69,10.24,14.82.88,2.43-.43,6.59,2.67,5.81,1.18-4.43,4.27-8.82,7.03-12.48,4.43-5.86,26.98-24.21,26.98-29.02v-23.5Z"/>
  <path class="st25" d="M190,829l5.67-9.83c12.56-1.33,25.12-3.16,37.52-5.48,19.19-3.6,37.54-8.94,57.27-9.73,8.48-.34,19.58,2.13,26.98.98,4.11-.64,6-4.01,8.28-4.72,8.47-2.6,31.78-3.61,41.74-4.26,45.36-2.96,96.67-4.69,142.08-3,4.18.16,23.31,4.48,24.46-.47.96-4.13-6.23-1.41-7.49-1.49-53.75-3.14-108.14-2.34-161.99,1.01-10.48.65-21.02,2.42-31.51,2.98,2.86-3.12,3.64-5.24,4.04-9.45,1.33-14.13-.93-28.54-2.04-42.54,20.41-2.37,41.04-1.06,61.49-2.01,47.62-2.21,95.52-10.38,143.97-12.03,4.09-.14,24.59,1.68,25.53-1.47,1.45-4.86-4.43-2.48-6.44-2.44-66.2,1.48-131.1,9.91-197.09,11.91l-28.45,2.04c-.75-19.15.77-38.12,4.04-56.95,4.88-.99,9.86.84,14.41.99,75.72,2.47,150.69-10.91,227.09-10.09,6.49.07,13.28,3.15,19.5-1.58l-.56-3.38c-6.03,2.82-10.51.97-15.95.97-16.64.02-33.46-.5-50.08,0-57.26,1.72-114.34,12.02-172.01,10.09-6.94-.23-14.24-1.92-21.46-1.04l2-71.01,291-5.98c-4.32,16.63-8.87,33.31-13,49.99-15.52,21.35-17.88,51.48-23.49,77.01-4.68,21.33-7.93,34.89-10.51,56.99-1.75,14.94-8.29,29.11-10,44H190Z"/>
  <path class="st11" d="M680,586c12.64,6.3,14.46,13.14,17,26,.18.9-.18,2.1,0,3l-5.99,60.51c-1.97,37.03,3.12,73.27,7.09,109.89,5.56,8.82,8.98,15.33,5.95,26.15-1.73,6.17-7.51,10.86-8.05,17.45h-89c-.31-5.8-5.31-5.21-8.94-7.56-7.43-4.81-10.56-10.07-13.06-18.44,13.49-52.61,26.62-105.36,40-158,5.61-2.57,11.7-4.42,18.01-3.99l.99-17.01c5.33,41.49,12.38,82.35,18.86,123.64,3.01,19.19,9.61,52.04,9.88,70.08.03,2.16-4.64,7.88,3.34,5.84l.94-2.07c-3.75-27.25-6.95-54.65-11.17-81.83-5.67-36.5-11.26-72.29-15.98-109.02-.9-7-4.77-18.54-2.86-24.64,2.21-7.07,8.99-17.92,17-19,4.71-.64,10.94-.49,16-1Z"/>
  <path class="st23" d="M246,0l1,26c2.92.8,5.65-.7,8-1,20.5-2.69,47.16-7.24,67.44-3.94,6.22,1.01,6.22,7.11,6.6,12.4.5,7.14-.53,14.85-.03,22.03,1.24,18.01,4.61,35.96,5.98,54.02,2,26.4,1.93,53.11,3.01,79.49.08,1.99-.1,4.01,0,6,.12,2.32-.08,4.68,0,7v3l1,6c.47,9.66,2.34,19.38,3,29,.14,1.98-.14,4.02,0,6,.39,5.68.68,11.31,1,17,.19,3.37.89,7.3,1,10,.67,16.13.7,31.81,0,48-1.51,35.17-2.65,69.7-3,105-.52,52.63-2.32,106.79,0,159,.26,5.97-.19,12.03,0,18.01l297.4-7.07,1.5,4.5c-.33,1.63-3.57,1.05-4.71,3.25-3.34,6.45-7.88,32.27-10.18,41.32-13.38,52.64-26.51,105.39-40,158-2.2,8.58-4.68,17.22-6,26h-4c1.71-14.89,8.25-29.06,10-44,1.42-1.15,1.48-2.97,1.91-4.59,11.53-42.88,21.42-86.32,32.09-129.41,4.13-16.68,8.68-33.36,13-49.99l-291,5.98-2,71.01c7.22-.88,14.52.81,21.46,1.04,57.66,1.93,114.75-8.37,172.01-10.09,16.62-.5,33.44.02,50.08,0,5.43,0,9.92,1.85,15.95-.97l.56,3.38c-6.22,4.74-13.01,1.65-19.5,1.58-76.39-.82-151.37,12.56-227.09,10.09-4.55-.15-9.53-1.97-14.41-.99-3.28,18.82-4.8,37.8-4.04,56.95l28.45-2.04c65.99-2,130.88-10.43,197.09-11.91,2.01-.05,7.89-2.43,6.44,2.44-.94,3.15-21.44,1.33-25.53,1.47-48.45,1.65-96.35,9.82-143.97,12.03-20.46.95-41.08-.36-61.49,2.01,1.11,14,3.37,28.42,2.04,42.54-.4,4.21-1.18,6.33-4.04,9.45,10.49-.56,21.03-2.33,31.51-2.98,53.85-3.35,108.24-4.15,161.99-1.01,1.26.07,8.45-2.64,7.49,1.49-1.15,4.95-20.28.63-24.46.47-45.41-1.69-96.72.04-142.08,3-9.96.65-33.27,1.66-41.74,4.26-2.29.7-4.18,4.08-8.28,4.72-7.39,1.15-18.5-1.31-26.98-.98-19.73.78-38.08,6.13-57.27,9.73-12.4,2.32-24.95,4.16-37.52,5.48l-5.67,9.83h-4l4-8.99c-18.01,2.3-35.84,3.59-54,2.99-14.3-.47-31.95-1.21-46-3-17.97-2.29-36.16-10.72-52.78-12.72-13.12-1.58-16.93,4.21-19.1-11.9-.8-5.92-.75-13.29-1.13-19.37-.75-12.2-1.01-23.76-1-36,.02-14.96,1.39-28.39,2-43,2.16-51.37,2.9-102.61,5-154,.38-9.28,1.6-18.64,2-28,.19-4.39.86-8.43,1-13,.36-11.95-.11-24.03,0-36,.03-2.66-.01-5.34,0-8,.02-4.87-.98-9.94-1-14-.07-16.4,2.36-34.27,1-51l3.04-66.46c-.55-95.09-2.02-190.06-3.02-285.06-.02-1.69.64-4.45-1.02-5.49h-2s0,4.01,0,4.01h-4.01c-13.38-4.34-.29-9.14,6.96-9.05l.18-6.32,4.86-1.64c.17,1.63-.21,3.39,0,5,.09.68-.44,2.05.51,2.01,12.65-1.74,25.69-1,38.49-1.01l41.5,5c18.86-.2,37.93-3.45,56.5-5,21.73-1.81,44.13-1.39,66-2,2.99-.08,6.02.06,9.01,0l-1.01-27.01h4ZM266,29c-14.07.69-28.31,3.47-42.46,4.04-15.28.61-30.76-.81-46.03-.03-24.55,1.25-47.86,6.49-73,4.98-10.28-.62-20.7-3.43-30.97-4.03-4.98-.29-40.99-.42-42.53,1.05.3,13.48-.42,27.05-.05,40.53,5.32,194.79-.8,389.18-5.92,584l-3.04,42.46c-1.01,3.49-.84,8.34-1,12-.28,6.62.07,13.37,0,20-.16,15.39-.18,30.7,1,46,.56,7.27,1.49,14.61,2.12,21.88,5.66.95,11.38.52,17.11,1.39,15.71,2.39,29.79,8.31,46.78,10.72,17.08,2.43,32.78,3.39,50,4,1.28.05,2.89.97,4.48.99,16.19.21,32.73-2.35,48.8-4.2,3.74-1.59,6.19-16.01,11.2-16.8,2.53-.37,1.47,1.69,1.08,3.08-1.16,4.14-4.6,8.21-5.55,11.46-.46,1.57.12,1.59,1.48,1.49,22.08-1.62,44.58-9.08,66.5-12.03l-13.99-3.98c6.49.17,13.04-.25,19.54-.05,16.56.51,33.08,1.42,49.76.06,2.46-5.16,9.93-5.2,10.75-11.47,1.76-13.32-1.2-30.11-2.06-43.55h-4s-.02-3.51-.02-3.51l3.1-1.05c-.76-18.95,1.02-37.78,3.94-56.44l-6.07-.44-.94-4.56,7.99.99,2.01-71-10,1.01v-5.01s10,.01,10,.01c.03-3.99-.05-8.02,0-12.01.14-11.31-.09-22.68-.01-33.99l-1.98,10.51c-.24,6.15.26,12.36-.01,18.49h-4l1-25c3.51-3.99,1.65-4.38,3-9l2.99,3.99c1.07-2.98-.89-7.12-.99-8.99-.14-2.65.07-5.35,0-8,2.44-3.43.29-12.49.99-16.99-1.75-.23-.94,2.27-.99,3.49-.18,4.45-.12,9.07,0,13.51-.59.83-3.13,2.06-4,3l-1-31,3-8,1.99,17.99c.19-7.64-.22-15.36.01-22.99.02-.67-.02-1.33,0-2,.9-31.29.77-62.63,1-94,.13-17.91-.67-36.14,0-54,.34-9.07,1.6-18.69,2-28,.68-16.01.67-28.98,0-45-.18-4.39-.74-8.95-1-13-.57-8.88-.48-18.08-1.01-26.99-1.37-.25-1.51,1.78-1.72,2.75-1.34,6.17.04,15.74-6.27,19.24.98-9.8,1.94-19.65,3.05-29.45.57-5.05,1.82-8.14,1.95-14.55.05-2.32.05-4.68,0-7-.09-3.91-.95-7.24-1-11-.46-33.87-.85-67.77-4.01-101.49-.57-6.06-1.65-12.57-2.99-18.51-.19-6.47-1.7-13.14-2.04-19.46-.46-8.5,1.33-18.68-.96-26.54-.23-.78.23-2.13-.45-3.01-.74-1.11-1.89-.9-3-1.04-6.78-.82-19.91-.36-27.04.06-8.66.52-18,2.28-26.51,3.99Z"/>
  <path class="st25" d="M92,0L31,28c-.21-1.62.17-3.37,0-5l-4.86,1.64-.18,6.32c-7.25-.09-20.34,4.71-6.96,9.04-1.27,8.23-6.71,15.87-5.9,24.38.62,6.49,5.52,15.36,11.89,17.62v-45.99c1.66,1.04,1,3.79,1.02,5.49,1,94.99,2.47,189.96,3.02,285.06l-3.04,66.46c-.14-1.74-1.66-5.55-1.5-8-9.26,8.98-20.32,17.17-24.5,30V0h92ZM26,208c-1.68-.36-2.02.54-2.98,1.52-5.93,6.05-7.55,17.32-5.24,25.21.95,3.25,5.7,8.5,6.09,9.99.52,1.98-1.58,3.79-1.82,5.84-.64,5.51-.85,14.8,3.95,18.45v-61Z"/>
  <path class="st22" d="M943,0l-216.46,15.04c-83.1,3.75-166.05.38-249-2.08-7.34-.22-14.73.22-22.08.08-25.38-4.14-52.75-1.16-77.94-4.06-12.11-1.39-25.71-5.77-37.52-8.98h603Z"/>
  <path class="st5" d="M886,530c1.33-.01,2.67,0,4,0,45.99,0,91.89,2.07,138,2,1.67,0,3.33,0,5,0,30.7-.12,61.45.91,92-2-3.93,1.3-7.7,3.1-12,3.01-.27.22.53,1.29.98,1.51,2.68,1.28,17.86,2.13,22.02,2.48,1.17.1,2.37.95,3,1,22.09,1.77,45.69.68,68,1,1.33.02,2.67-.02,4,0,12.83.15,25.96-.29,39,1,8.68.86,17.29,1.53,25,6,3.94,2.29,8.54,6.58,10,11,5.84,17.71,1.92,48.14,3.01,67.49.6,10.63,3.41,21.37,4.03,31.97,2.05,34.77-6.38,70.28-4.08,105.08.98,14.87,6.23,36.01,10.55,50.45,1.28,4.27,7.99,14.52,1.5,16-8.39,1.92-22.28-2.25-31,1h-58c2.07-6.97,5.27-2.45,8.28-2.28,8.24.48,24.46-3.42,34.18-3.77,8.21-.29,15.72.82,23.54,1.04,2.08.06,21.01.54,21.01-.51-6.21-17.4-11.81-37.69-13.88-56.12-4.2-37.37,5.05-75.89,2.92-113.92-.67-11.91-3.47-23.97-4.04-35.96-.81-17.06,1.8-36.07-1.3-52.7-1.21-6.48-1.36-8.98-6.8-13.2-11.45-8.89-39.31-8.21-53.91-8.59-2.66-.07-5.34.05-8,0-1.67-.03-3.33.03-5,0-26.89-.4-52.18.84-79-2-4.7-.5-9.21-1.87-14-2-1.33-.04-2.67-.02-4,0-3.41-.98-9-1.82-12.51-1.99-19.49-.95-39.95,1.64-59.49,1.99-2.81-1.49-4.2-2.79-8.01-1.99l1.01,1.99c-34.81,3.75-70.22,6.67-105,1-11.39-3.05-23.33-1.72-35-2-.03-1,.05-2.01,0-3l-3.48-.05c-.21.04-1.38,3.49-1.51,4.05-11.39.16-22.47,3.08-34,2,.13-1.41-.29-2.8-1-4,7.72.12,15.34-.07,23-1.01.23-1.75-2.27-.94-3.49-.99-2.61-.11-5.46-.16-8.06-.05-6.02.26-12.19,1.84-18.45,1.06-.05,1.81,3.72.95,4.99.99.33,1.94-1.52,2.99-2,4-13.32,1.11-26.87-3.04-40,0-.64-.07-1.35,0-2,0l-2,1c-2.15.1-4.32-.17-6.47.01l-41.53,5.99c-7.3-.88-19.3-.26-27,0-1.66.06-3.34-.08-5,0-7.7.39-15.47,1.35-22.99,3.01.2,2.15,5.47-.05,5.99,2.5.79,3.9-13.63,2.97-15.99.99-6.41-5.39,10.62-8.65,14-8.51l-3-9.99c2.47-1.61,1.18-.75,4-2l3.38,4.88,4.62-4.88c1.76,1.98,1.63,1.93,3,4l-4.99,7c3.12-1.04,5.8-.93,8.99-1,1.66-.04,3.34.08,5,0,7-.34,13.99-.69,21-1,3.81-.17,7.67.17,11.49-.01l12.5-1.98c-8.99-.82-17.93-2.07-27-2.01-.67,0-1.33,0-2,0-6.18-2.39-13.43-3.13-20-3-.67-1.08-1.91-2.06-3-4,5.89-1.46,12.89.33,19,1,53.26,5.88,96.1-2.55,148-3ZM946,536c-1.51-.01-11.01-.37-11.01.5,3.65.29,7.39,1.14,11.01,1.5,2.39.24,7.93,1,9.5,1h32c.34,0,1.67-.94,2.96-1.04,2.48-.18,5.11.29,7.54.04,2.24-.23,4.77-1.11,7.01-1.5-1.84-2.05-6.16.5-7.01.5-3.43.01-6.29-1.11-9.5-1.09-11.26.07-22.18,1.02-33.5,1.09-.84-1.6-3.39-.96-5-1-1.33-.03-2.67,0-4,0Z"/>
  <path class="st22" d="M1480,564c-2.75-10.08-10.88-18.61-21.58-19.91-5.37-.65-10.01,1.62-15.31.81l-1.98-9.77c18.47-8.32,43.27-22.92,35.16-46.91-4.28-12.66-17.27-18.16-29.29-20.73,2.98-4.87,7.32-7.31,8.57-13.43s-.89-11.34-.36-15.34c.45-3.43,4.34-7.26,4.84-13.17,1.14-13.41-4.36-16.74-12.04-26.02,17.52-9.63,35.78-23.62,30.32-46.34-1.87-7.79-8.12-10.41-9.8-14.2-1.07-2.41-1.33-8.28-2.75-12.25-1.91-5.32-7-12.72-8.29-17.71s.09-9.69-.56-14.44c-1.18-8.71-8.85-16.31-16.93-19.1,1.43-5.15,6.3-7.24,9.54-10.46,13.47-13.37,27.72-27.77,29.47-48.03h1v347Z"/>
  <path class="st13" d="M1480,775c-24.14-4.42-48.64-.05-73-1.01,14.19-10.62,45.24-20.48,47.91-40.58,1.11-8.36-.4-15.41-5.82-21.92,5.99-4.86,12.35-8.65,16.08-15.81,7.61-14.61.68-32.01-15.02-36.84.84-9.51-2.5-16.9-9.06-23.54-.52-1.98,4.53-7.01,5.69-10.01,2.51-6.45,2.52-12.34.26-18.84-1.48-4.26-4.63-6.47-5.05-10.45,15.93-2.2,33.21-5.36,38-23v202Z"/>
  <path class="st11" d="M1307,560c-.35,7.19-6.99,15.06-8.53,20.97-2.14,8.21,4.96,36.21,6.39,46.67,4,29.39,5.96,59.25,1.3,88.66,10.82,10.19,13.74,22.18,7.7,36.05-3.69,8.46-19.77,25.41-18.85,34.1.04.42,2.89,6.16,3.19,6.35,1.5.98,9.76.98,12.2,1.3,2.24.29,5.46,1.93,7.17,1.83,3.17-.19,7.38-11.13,12.43-11.93,0,8.03.41,16.01,1,24-4.17-3.92-6.36-10.81-12.99-11-4.28,12.07-1.79,24.53,8.99,32h-27v-1c6.5-1.49-.22-11.73-1.5-16-4.31-14.44-9.56-35.59-10.55-50.45-2.3-34.8,6.13-70.31,4.08-105.08-.62-10.6-3.43-21.34-4.03-31.97-1.09-19.35,2.83-49.78-3.01-67.49,6.18,1.74,15.71,4.46,22,3Z"/>
  <path class="st4" d="M140,0c-.01,2.5,1.14,3.05,3.45,3.05,4.14-.01,11.21-2.23,15.55-3.05h16c3.2,1.01,9.7,6.05,12.48,6.08,3.52.04,11.01-4.54,14.52-6.08h17c10.43,5.74,16.58,14.63,15,27-21.87.61-44.27.19-66,2-32.65.02-65.35-.03-98,0-12.8.01-25.83-.73-38.49,1.01-.96.03-.42-1.33-.51-2.01L92,0h48Z"/>
  <path class="st25" d="M18,697c-.61,14.61-1.98,28.04-2,43-12.16,8.36-10.3,27.52,1,36,.37,6.08.33,13.45,1.13,19.37,2.17,16.11,5.98,10.33,19.1,11.9,16.62,2,34.81,10.44,52.78,12.72l5,9H0v-122l18-10Z"/>
  <path class="st4" d="M18,697l-18,10v-73l19-18.99c-6.63,1.57-12.65,1.49-19-1.01v-48l23-23c-2.1,51.39-2.84,102.63-5,154Z"/>
  <path class="st9" d="M711,573c-.09-6.67.2-13.42,2.15-19.85l3.85-.15c-.26,5.72-.97,11.24-1,17,0,1.66-.04,3.34,0,5,.09,3.7.59,7.34,1,11s.6,7.37,1,11.01l10-1c1.94,8.2-9.88,1.49-10.09,8.49-.07,2.24,1.05,4.55,1.13,6.97.92,29.63-.62,59.43-.08,89.08.49,27.49,2.83,55.78,3.04,82.97.09,11.75-.95,21.95-2.98,33.47,5.83-.68,8.62,5.18,13.73,6.77,7.58,2.36,22.6,1.89,31.76,3.28,1.86.28,4.06-1.27,3.49,1.96h-35c-3.56-.67-8.6-5.93-10.98-6.62-2.85-.82-4.94,1.71-8.01-2.38v9h-4.01c.79-20.26,3.74-42.24,1.98-62.48-1.02-11.75-4.91-24.62-5.97-37.03-3.48-40.57-.89-73.1-9.01-114.49-.18-.9.18-2.1,0-3,2.77-.35,2.53-.29,3.5,1.96,1.36,3.12,2.33,8.49,3.03,12,3.44,17.24,4.12,34.98,5.39,52.48l3.14,1.1c-1.56,15.34-2.66,30.52-2.11,45.99l6.03,36.46c.27-19.93-.51-39.66-.95-59.54-.84-38.08-1.14-76.4-3.04-114.46-.17-3.31.14-6.69,0-10-.06-1.45-.98-3.17-1-5Z"/>
  <path class="st2" d="M710,829h-14c.54-6.59,6.33-11.28,8.05-17.45,3.03-10.82-.4-17.33-5.95-26.15-3.96-36.62-9.06-72.86-7.09-109.89l5.99-60.51c8.12,41.39,5.53,73.92,9.01,114.49,1.06,12.41,4.95,25.28,5.97,37.03,1.76,20.25-1.19,42.22-1.98,62.48Z"/>
  <path class="st13" d="M25,444c.02,4.06,1.02,9.13,1,14-4.62,2-9.66,9.85-12.17,14.33-9.56,17.05-7.92,34.22,11.17,42.67-.4,9.36-1.62,18.72-2,28l-23,23v-141c3.84,11.12,12.78,19.12,25,19Z"/>
  <path class="st23" d="M1322,0c-1.59,8.45,1.68,14.69,3,23,.86,5.42,1.43,10.53,2,16,.52,5.01,2,12.87,2,17.5v40c0,1.35.93,4.84,1,7.5.11,3.98-.09,8.01,0,12,.39,16.99.71,33.93,1,51,.27,15.64-.34,31.36,0,47,.82,38.37,5.59,76.6,6,115,.25,22.86-1.18,45.97-1,69,.11,13.77.3,27.25,1,41,.23,4.63-.88,9.74,1,14l4,37c-1.63,1.29-2.18,1.75-4,3-1.82-11.91-3.08-23.98-4-36-.61-7.99-.67-15.06-1-23-.43-10.37-.92-20.55-1-31-.2-25.36,1.26-50.69,1-76-.02-2.12-1-4.2-1.04-6.46-.27-14.61-.15-28.94-.96-43.54-.13-2.27-.91-4.27-1-6-.94-17.38-2.6-34.6-3-52-.44-18.93-.65-38.21-1-57-.25-13.64.31-27.36,0-41-.2-9-.27-18.03-1-27l-1-51c-.93-6.03-1.88-12-3-18-.26-1.39-3.46-20.94-5.99-19-.64,3.67-1.6,10.09-5.96,5.43l3.95-11.43h9Z"/>
  <path class="st22" d="M1438,0h42v93c-5.14-2.3-9.75.31-15,0,5.84-11.82,1.71-23.5-7.93-31.63,15.25-17.23,16.69-44.21-8.25-52.68-6.14-2.09-10.11.92-10.82-8.68Z"/>
  <path class="st9" d="M1342,497v1l3.04,40.46v68.08s-2.04,31.46-2.04,31.46l-2,15c-1.61,40.7-5.86,81.28-6,122-.06,18.07-.14,36.05,2,54h-4c-.69-6.94-1.49-14.05-2-21-.59-7.99-1-15.97-1-24,.03-82.34,12.64-162.21,9.96-245.46-.43-13.2.4-26.47-1.96-39.54,1.27-.78,3.35-1.53,4-2Z"/>
  <path class="st6" d="M26,393c1.36,16.73-1.07,34.6-1,51-12.22.12-21.16-7.88-25-19v-10c4.18-12.82,15.25-21.02,24.5-30-.16,2.44,1.35,6.26,1.5,8Z"/>
  <path class="st22" d="M1376,0l-42,18c-1.56-9.12-4.19-11.94-11-18h53Z"/>
  <path class="st0" d="M1331,808c.51,6.95,1.31,14.06,2,21h-6c-10.78-7.47-13.27-19.93-8.99-32,6.63.19,8.82,7.08,12.99,11Z"/>
  <path class="st2" d="M136,823c18.16.6,35.99-.69,54-2.99l-4,8.99h-53l3-6Z"/>
  <path class="st25" d="M242,0l1.01,27.01c-2.99.06-6.02-.09-9.01,0,1.58-12.37-4.57-21.26-15-27h23Z"/>
  <path class="st2" d="M607,829h-28c1.32-8.78,3.8-17.42,6-26,2.5,8.37,5.63,13.63,13.06,18.44,3.63,2.35,8.63,1.76,8.94,7.56Z"/>
  <path class="st4" d="M136,823l-3,6h-38l-5-9c14.05,1.79,31.7,2.53,46,3Z"/>
  <path class="st2" d="M261,0c-5.85,7.84-6.79,15.37-6,25-2.36.31-5.09,1.81-8,1l-1-26h15Z"/>
  <path class="st13" d="M0,614c6.35,2.5,12.37,2.58,19,1.01l-19,18.99v-20Z"/>
  <path class="st8" d="M1334,18c.05.32-.04.67,0,1l-9,4c-1.32-8.31-4.59-14.55-3-23h1c6.81,6.06,9.44,8.88,11,18Z"/>
  <path class="st25" d="M202,0c-3.51,1.54-11,6.12-14.52,6.08-2.78-.03-9.28-5.07-12.48-6.08h27Z"/>
  <path class="st2" d="M733,829h-19v-9c3.08,4.09,5.18,1.57,8.02,2.38,2.37.68,7.41,5.94,10.98,6.62Z"/>
  <path class="st25" d="M1480,822v7h-13c4.41-1.97,8.09-7.26,13-7Z"/>
  <path class="st2" d="M1480,217h-1c.86-9.94-1.05-20.09-1.08-29.5-.01-3.21,1.22-9.24,2.08-12.5v42Z"/>
  <path class="st2" d="M159,0c-4.34.82-11.41,3.04-15.55,3.05-2.31,0-3.46-.55-3.45-3.05h19Z"/>
  <path class="st14" d="M1300,828v1h-31c8.72-3.25,22.61.92,31-1Z"/>
  <path class="st8" d="M1221,543c14.6.38,42.46-.3,53.91,8.59,5.43,4.22,5.59,6.73,6.8,13.2,3.1,16.62.49,35.64,1.3,52.7.57,12,3.37,24.05,4.04,35.96,2.13,38.03-7.12,76.55-2.92,113.92,2.07,18.42,7.68,38.72,13.88,56.12,0,1.05-18.93.57-21.01.51l-1.5-263h-39c-4.26-6.82-10.37-11.92-15.5-18Z"/>
  <path class="st3" d="M1032,539c.84,1.54,2.56,3.07,4,4-23.17,1.52-46.32,4.93-69.51,6.99l-79.49,3.01c1.74-2.47,4.48-7.17,5-10l35-3c34.78,5.67,70.19,2.75,105-1Z"/>
  <path class="st3" d="M808,541c9.54,1.11,20.79,3.38,30.57,4.98,1.88.31,4-1.12,3.43,2.02-33.82,1.29-47.98,8.59-84,1-.34-.07-1-.88-2-1l41.53-5.99c2.16-.18,4.33.09,6.47-.01.93-.04,1.87-1,2-1,.65,0,1.36-.07,2,0Z"/>
  <path class="st12" d="M1039,539c1.54.82,2.92,1.94,5,3,21.02,10.71,46.86,9.41,68.07-.49,1.45-.68,3.55.22,2.93-2.51,4.79.13,9.3,1.5,14,2l-4.64,6.05c-4.16.94-4.12-3.03-4.94-3.11-1.73-.18-14.49,6.04-17.97,7.01-21.56,5.99-46.55,4.23-65.44-7.94-1.44-.93-3.16-2.46-4-4l-1.01-1.99c3.81-.79,5.2.5,8.01,1.99Z"/>
  <path class="st16" d="M756,548c1,.12,1.66.93,2,1l-11.01,11.49c-5.24,1.19-10.7.2-15.99.51.82-4.67-1.44-8.54-2-13,7.7-.26,19.7-.88,27,0Z"/>
  <path class="st3" d="M887,543c-1.55,5.12-3.46,6.59-7,10l-30-4c.23-.9.88-1.56,1-2l36-4Z"/>
  <path class="st18" d="M848,541c-.77,1.64-2.58,5.53-3,7-1,.03-2-.04-3,0,.57-3.14-1.55-1.71-3.43-2.02-9.78-1.6-21.03-3.87-30.57-4.98,13.13-3.04,26.68,1.11,40,0Z"/>
  <path class="st12" d="M887,539c.13-.56,1.3-4.01,1.51-4.05l3.48.05c.05,1-.02,2,0,3,.04,1.47.24,3.71,0,5-.52,2.83-3.26,7.53-5,10-3.13,4.46-5.87,7.4-11.45,8.05-1.14.13-6.33.68-6.54-1.03,4.8-.87,7.72-3.87,10.99-7.01,3.54-3.41,5.45-4.88,7-10,.31-1.01-.27-2.87,0-4Z"/>
  <path class="st19" d="M717,586c-.41-3.66-.91-7.3-1-11,4.48-.75,7.5-4.5,11-7-.5,9.98,3.21,16.18-10,18Z"/>
  <path class="st12" d="M729,548c.56,4.46,2.82,8.33,2,13-1.05.06-2.42-.53-3.1.58-.96,2.08-.79,4.22-.9,6.42-3.5,2.5-6.52,6.25-11,7-.04-1.66,0-3.34,0-5,10.97-3.79,11.78-12.1,8-22,1.66-.08,3.34.06,5,0Z"/>
  <path class="st12" d="M852,537c.71,1.2,1.13,2.59,1,4-.18,1.85-1.44,3.99-2,6-.12.44-.77,1.1-1,2-1.07,4.23-1.3,7.55-1,12l-3.38-.12c-3.09-1.04-1.45-10-.62-12.88.42-1.47,2.23-5.36,3-7,.48-1.01,2.33-2.06,2-4,.67.02,1.33-.01,2,0Z"/>
  <path class="st12" d="M1213,543c-.13,3.31,1.49,6.73,2.81,9.69,1.14,2.55,7.24,9.02,1.64,8.37-5.18-.61-9.24-12.98-9.46-18.05,1.67.03,3.33-.03,5,0Z"/>
  <path class="st13" d="M742,95c.47-8.15-7.33-18.76-12-24.99l109.46,6.03c29.85-2.37,66,5.54,95.07,1.99,7.93-.97,14.71-7.21,18.14-14.07l64.88.08c2.36-.05,4.55-1.03,6.92-1.08,63.51-1.49,126.72-4.18,190.03-9.97-1.06,3.84-3.8,6.27-4.4,10.6-.76,5.43.83,9.69.91,14.41s-.5,9.18,0,15c-11.72,20.82-16.98,50.98,5,67,.44,37.65-6.71,70.48-8.05,106.45-1,26.92,7.37,53.19,7.13,80.04-.12,13.46-3.07,27.77-4.94,41.15-1.29,9.22-1.5,18.35-4.14,27.35l3.85-.14c1.07-3.13,2.28-6.33,2.89-9.61,4.82-26.08,7.67-57.35,5.25-83.73-2.64-28.78-7-44.59-3.98-75,2.94-29.61,6.27-53.07,5.99-83.51,12.08,6.89,26.16,7.99,39.06,12.61.17,2.49-.1,4.81-.75,7.21-4.15,15.53-15.9,31.8-18.21,48.79-.51,3.74.57,8.21-.35,11.65-.68,2.57-6.59,10.2-8.24,13.76-9.73,20.92-9.81,42.5,8.28,58.62-3.94,9.58-5.61,18.41-4.79,28.86.24,3,2.5,7.3,1.84,9.78s-10.53,14.74-12.72,19.35c-7.81,16.43-6.44,24.74,1.36,40.4,2.33,4.69,9.61,12.41,7.02,17.96-.56,1.19-7.15,8.99-8.48,8.02-6.12-19.48-25.7-14.39-41.56-14.96-37.58-1.33-84.66-3.9-121.46-1.04-1.04-1.66-3.79-1-5.49-1.02-13.29-.14-26.32.7-39.51,1.02-49.88,1.22-99.73,1.74-149.49,5.01-15.16,1-30.37,2.78-45.51,3.99-14.51-3.54-29-9.44-44-9v3.99c8.9-.45,17.54,2.35,26.08,4.48,1.31.33,2.41,1.4,2.93,1.53l-66.49,11.01c-.9-3.64,2.53-9.94,2.49-13.01,1.46-.38,4.23,1.26,3.94-1.42-.38-3.54-1.78-7.36-1.98-11.04-1.69-31.47-.54-65.33-1-97-.96-66.44.98-132.69-.92-199.08-.18-6.2-2.25-15.04-2.15-20.98.05-3.16,1.93-4.43,2.11-7.48ZM1205.99,69.01c-3.83.38-6.4,3.07-10.2,4.29-14.59,4.71-40.54,6.74-56.26,7.74-37.13,2.37-74.93,2.43-112.05,3.95-76.64,3.13-153.37,5.09-229.98,8.02-1.92.07-3.84.97-5.97,1.03-5.02.15-39.08.36-40.54-1.05.97-9.7-8.24.01-3.33,3.08,1.27.79,6.1,1.75,7.84,1.91,32.01,3,73.84-2.03,107.03-2.95,23.49-.65,47.42-1.42,70.92-2.08,7.68-.22,15.4.22,23.08.08,68.94-7.87,141.31-1.92,209.83-10.17,6.34-.76,36.74-4.98,39.13-9.87.63-1.29.59-2.62.49-4Z"/>
  <path class="st22" d="M1326,162c.35,18.79.56,38.07,1,57-18.8,13.02-22.03,44.53,3,52,.09,1.73.87,3.73,1,6-18.45,12.2-22.34,42.78,2,50,.26,25.31-1.2,50.64-1,76-8.32,8.24-7.85,23.49,1,31,.33,7.94.39,15.01,1,23-12.37,9-10.21,28.77,1,38-11.63,7.02-16.69,10.12-31,8,5.47-9.22,10.5-19.3,12-30,.58-4.16.81-10.61,1-15,.05-1.06.14-.54,0-2-.06-.65.12-1.42,0-2-2.79-13.96-13.94-21.71-28-21,7.6-17.7,16.39-39.67,13.74-59.24-.81-5.99-6.87-14.71-6.82-18.28.03-2.07,5.66-11.47,6.8-15.26,2.62-8.79,2.99-16.28.82-25.25-1.08-4.45-5.05-10.2-5.5-13.55-.61-4.56,1.69-9.44,1.95-13.93.76-13.29-.34-25.83-5.94-37.99,16.25-27.24,32.31-55.86,28.95-88.99l3,1.5Z"/>
  <path class="st1" d="M377,190c10.39-6.97,28.13-23.27,37.86-7.36,2.6,4.26,2.48,8.14,5.76,12.73,1.76,2.45.6,5.39,5.97,2.71l.9,1.93c10.54-4.08,29.16-30.07,39.93-28.99,10.13,1.02,11.32,37.61,28.09,25.99,4.72-3.27,19.04-20.97,22.22-21.86,7.54-2.1,7.55,16.69,16,18.64,14.85,3.43,33.12-25.55,42.65-24.53,5.77.61,12.94,18.35,23.37,20.53,12.73,2.66,19.42-17.94,30.76-15.79,4.93.93,4.74,11.94,4.52,16.02,2.35-1,3.42-5.01,5.99-1.48l-3,7.47c9.51-.9,16.73-3.71,24.52-8.97,4.16.09,3.93,7.17,3.48,9.98-.3,1.82-1.69,2.98-1.95,4.54-2.03,12.54,2.67,7.47,6.96,9.94,1.01.58,1.77,2.63,1.73,3.85-.21,5.46-8.5,16.73-11.74,21.67-1.54,2.35-3.33,4.34-5,7-2.98,4.74-7.39,8.88-1,14,1.84.62,3.72-.84,5-1,20.79-2.55,20.91-.29,28,18,11.73,30.23,10.8,44.44,5,76-6.61,35.95-13.19,71.86-18.72,107.78-1.84,11.97-4.36,24.33-4.78,36.22l12.5-10c6.25,1.15-1.07,12.18-2,16l-15.42,23.08c-2.57,7.22-1.29,14.68-2.58,21.92-2.28,1.16-4.41,3.17-7,4,.81-1.68,1.26-3.09.99-5-3.19-1.14-4.03,2.44-4.99,3-1.36.79-4.34.97-5.99.99-2-2.01,6.43-12.66,7.99-14.99s4.07-4.07,5-7c3.67-3.75,4.64-12.23,5.02-17.5.31-4.33-3.43.94-4.02,1.5-1.39,1.31-2.78,2.97-4,4-3.17,2.68-7.17,6.1-11.41,5.97-1.05-.03-2.17-.96-2.59-.97,2.48-11.66,8.75-22.4,14-33,.98-1.97,2.01-4.02,3-6,1.84-3.66,14.94-25.87,12.99-28-5.04,1.43-9.37,4.97-14.99,4l-4-3c.04-1.96-.49-2.14,0-5,.57-3.33,1.7-4.8,2-9,5.87-8.58,12.33-18.17,17.17-27.33,3.63-6.87,8.41-14.8,7.82-22.67-8.92.14-15.77,8.41-25,7-1.56-4.51-2.84-4.62,0-11l26-51.52c.4-1.23-.26-2-1.48-1.47-2.03.88-8.07,6.47-10.79,8.21-2.55,1.63-10.57,7.2-12.72,7.78-.8.21-2.97.07-4,0-11.69-.75-1.99-14.69,1-21,1.25-2.64,3.5-4.37,4-8,4.88-7.44,9.63-16.13,13.17-24.33,1.97-4.55,11.87-28.86,7.68-31.53-6.7-.87-12.36,3.5-18.85,4.86-1.02.21-3.65.99-4,1-9.01.34-14.33-3.69-11-13,.72-2.02,5-7.62,5-8.5v-16c0-2.46,2.33-11.17,3-14.5s6.38-17.43,2.5-19c-1.14,2.76-3.67,3.46-5.49,5.5-1.27,1.42-4.53,7.07-5,7.5-.41.37-5.02,1.9-6.04,1.62-2.47-.7-4.07-5-5.96-5.62h1.99c-.52-2.05-.91-3.86-.99-6-.05-1.33.06-2.67,0-4-.32-6.64-.18-13.43-2.09-19.91-3.8-2.59-16.32,12.11-21.01,14.3-14.96,7-24.03-10.47-32.54-19.23-2.69-.5-23.91,17.69-27.95,20.8-1.18.91-2.9.9-2.41,3.04-8.02.12-9.66-.21-17-1-4.91-4.4-6.06-10.3-8.79-15.74-.48-.95.27-1.61-1.7-1.25l-16.51,17.99c-3.1.8-3.77,3.22-5,4-3.05,1.92-4.79,1.25-7,2-2.74.9-5.99-2.14-8-2-1.93-2.6-3.98-5.09-5.52-7.98-8.06-15.22-4.23-25.64-22.96-9.99-6.19,5.17-14.07,14.91-20.53,18.97-.19.12-3.79,1.93-4,2-7.86,2.73-10.19-.45-13-7-.71-1.65-1.3-3.35-2-5-.25-.6-.02-1.92-.48-2.99-7.08-16.59-15.75-8.27-26.52-1.01-2.33,1.57-5.45,2.34-7,5-1.3.38-14.2,9.2-14.58,9.99,1.04,2.64,1.98,3.91,1.58,7.01-.01.11-.75,1.3-1,2-2.95,8.33-14.3,22.56-20,30-1.13,1.48-2.28,3.11-4,4-.14-1.98.14-4.02,0-6,7.05-8.88,16.43-19.15,20-30,.37-1.13,2.84-4.2-.52-4.03-2.81.14-6.39,2.17-8.48,4.03-2.54.21-4.72.95-8,1-1.59-1.7-2.1-3.63-2.05-5.94l-4.95-.06v-3c1.81-1.18,6.51-2.85,7.45-4.05,2.35-3,3.79-11.89,6.52-15.46l-13.98,12.51c-.1-1.99.08-4.01,0-6,4.16-2.18,17.97-19.74,21.48-19,1.26.26,1.54,1.98,1.35,3.28-.45,3.02-7.34,14.85-9.05,19.04-.57,1.39-.45,2.84-.77,3.68-.68,1.77-1.26,2.28-2,5-.01.05-1.95.6-.5,1,10.9,1.8,12.13-1.22,19.5-6,3.05-1.98,5.99-3.98,9-6ZM645,202c.63-.8,4.45-2.19,2.49-4.01l-11.37,2.16c-.41.41-.06,1.28-.12,1.85-1.29,13.64,5.53,4.41,9,0ZM658,208c-3,5.57-3.02,12.06-4,18-.84,5.09-3.27,10.11-1.99,16,2.41-.7,2.83-3.42,3.99-5s1.85-3.84,2-4c.13-.13,1.5.33,1.83-.15.81-1.21.67-3.05,1.17-3.85,3.32-5.3,13.39-14.17,1-16-.24-1.44-1.85-2.93-2.06-5.5-.25-3.08.8-5.56,1.05-8.49-3.02-.49-1.6.76-2.02,2.43-.53,2.12-.91,4.38-.98,6.56ZM670.99,260.01c-4.12-2.35-13.44,3.2-15.24,2.85-2.25-.44-6.26-4.64-7.25-6.85-2.36,2.12-4.04,6.73-.93,8.92,4.71,3.31,10.29-2.01,15.48-1.37l7.94-3.54ZM656,330c-.51,1.02-2.41,2.44-3.49,5.02-1.24,2.98-1.95,6.3-2.53,9.47.09,1.64,5.02-.14,6.01-.49,5.93-2.1,22.43-17.12,26.39-15.95,3.78,3.5.39,10.47-1.21,14.63-6.31,16.34-17.86,32.75-25.16,48.85-.26,1.75-.05,1.5,1.49,1.51,7,.01,16.19-9.13,24.48-7.04,2.27-16.48,6.36-32.58,9.01-48.99,3.71-23.02,4.14-25.92-3-48-1.78-5.5-3.3-11.72-5.52-17-.4-.95-.1-2.29-1.47-1.99-3.04,21.72-15.42,40.71-25.01,60ZM677.5,409v1c.65-.33.65-.67,0-1ZM656,453c4.03.78,14.66-2.71,16.27-6.23l4.72-35.77-20.31,35.18-.69,6.82ZM659,489c-1.26,2.51-2.73,5.38-4,8-2.86,5.87-6.85,11.32-8.85,17.67l2.85-.67c3.49-.79,4.9-4.07,7-6,1.66-1.53,2.46-2.25,4-4,1.95-2.22,3.44-1.81,4.57-5.93,2.4-8.74,1.92-20.1,4.42-29.06l-9.99,19.99ZM666.99,514.99c3.66-7.81,9.55-14.57,12-22.99l-11.46,11.02c-.41,2.74-1.3,5.77-1.51,8.5-.09,1.1-.74,3.72.97,3.47Z"/>
  <path class="st14" d="M998,440c.44,1.57-1.42,3.79,1.49,3.99,12.82.87,46.47,4.85,55.4,13.62,4.8,4.71,3.17,8.84,2.1,14.4h-79c8.61-34.5-36.85-26.37-55.02-15.52-5.58,3.33-9.6,6.11-8.98,13.52-9.43-2.11-34.29.47-45,1-.4-3.22-4.65-5.88-7.32-7.18-2.51-1.22-10.15-3.63-12.68-3.82,6.14,1.67,8.81-4.86,2.51-5.09-3.2-.12-5.17,2.29-8.49-.42-2.95-2.4-1.74-5.52-3.02-8.48l38-3c10.76-.13,20.8-1.71,31-2,29.12-.82,59.58-2.04,89-1Z"/>
  <path class="st12" d="M1342,497c-.65.47-2.73,1.22-4,2-11.23,6.9-19.5,9.83-33,9-2.28-.14-3.33-.73-5-1-3.42-.56-4.72-.83-8-2-12.71-4.52-24.44-11.6-32-23-3.92-5.91-5.72-11.71-11-18-3.62-4.31-5.61-5.74-10-9-2.98-2.21-5.66-4.29-9-6-9.59-4.93-21.41-8.49-32-5.5,2.62,2.14,6.75,3.74,10,4.5,4.26,3.88,9.33,6.28,13,11,2.5,3.21,4.85,8.08,6,12,2.12,7.25,1.99,14.7,0,22-2.81,10.33-11.42,20.2-14,31-.33,1.38-.74,2.32-1,4-.51,3.26-.14,7.52-1,11-1.33-.02-2.67.02-4,0,.31-3.51-.45-7.61,0-11,.1-.77.8-4.22,1-5,2.58-10.03,10.89-19.92,14-30,2.69-8.72,2.88-13.4,0-22-2.04-6.09-2.77-6.66-7-11-4.77-4.89-12.92-11.12-20-12-3.39-3.72-9.9-4.25-13,0-12.58,1.14-27.65,13.65-41.42,11.92-2.39-.3-4.42-1.7-7.07-1.93-7.94-.67-18.93,2.9-24.01-3.97-3.02,4.81-3.09,11.55-1.5,16.98,3.21,10.97,18.39,7.96,27.21,6.71,15.07-2.13,53.52-16.93,42.79,13.29-3.16,8.91-10.38,12.27-12.49,17.01-1.63,3.68.77,13.53-7.94,12.98-14.32-.92-.95-27.25,6.43-30.99.97.11,2.01-.05,3,0-.13,6.87-10.76,10.36-9.49,18.01l12.46-12.54c1.68-1.53,2.12-3.57,3.03-5.47,6.33-13.29.4-14.13-12.38-12.88-13.63,1.33-54.25,16.28-57.62-6.12-.62-4.12.26-23.45,4.64-24.88,1.12-.37,2.39-.31,3.41.33,1.44,1,1.24,6.35,4.64,7.36,1.45.43,11.23.58,12.59.21,1.28-.35,2.2-5.36,9.16-4.07l1.48,4.62c11.4,2.22,21.96-4.51,32.07-8.57,2.96-1.19,6.84-2.31,9.99-3.01l-2.04-1.58.02-1.9c2.29-6.57,7.21.25,9.54.49s7.04-1.78,10.01-1.99c15.04-1.05,28.03,2.81,40.48,10.98,1.88,1.23,4.36,2.65,6,4,1.16.96,5.99,5.8,7,7,3.53,4.18,7.8,11.22,11,16,1.62,2.42,2.7,6.03,4.77,8.73,6.34,8.3,18.51,13.3,28.23,16.27,3.43,1.05,3.99,1.41,8,2,14.31,2.12,19.37-.98,31-8,1.37-.83,1.84-1.2,3-2,1.82-1.25,2.37-1.71,4-3,19.52-15.42,26.89-34.89,43.48-51.02,4.15-4.04,11.03-8.31,17.01-8.04,9.29.42,20.99,19.53,15,28.06-5.98-1.53-3.33-8.33-4.23-11.71-.56-2.09-6.37-9.95-8.27-10.76-9.42-4.03-19.77,9.55-24.96,16-12.3,15.27-21.53,32.63-38.02,44.48Z"/>
  <path class="st15" d="M1286,434l.1,1.9c1.67-.31,2.76.73,3.9,1.1,8.34,15.7,20.6,33.51,17,52-.67,1.13-.6,2.63-1.99,4.5-1.81,2.44-6.04,6.6-9.01,7.5-9.72-2.97-21.89-7.97-28.23-16.27-2.06-2.7-3.15-6.31-4.77-8.73.97-5.71-1.78-17-6-21,2.76-6.65,8.84-12.13,14-17,5.92-2.28,8.75-3.08,15-4Z"/>
  <path class="st25" d="M666,197c8.29-2.99,9.03-14.74,7.76-22.26s-8.88-14.51-15.76-17.23l24.99-8.5c.08,41.99,9.54,83.96,5.01,126-7.09-18.29-7.21-20.55-28-18l1-20c3.24-4.94,11.53-16.21,11.74-21.67.05-1.22-.72-3.27-1.73-3.85-4.29-2.47-8.99,2.6-6.96-9.94.25-1.56,1.65-2.72,1.95-4.54Z"/>
  <path class="st14" d="M1171,446c-10.11,4.06-20.67,10.79-32.07,8.57l-1.48-4.62c-6.96-1.29-7.88,3.72-9.16,4.07-1.36.37-11.14.22-12.59-.21-3.4-1.01-3.19-6.36-4.64-7.36-1.02-.64-2.29-.69-3.41-.33-4.38,1.43-5.26,20.77-4.64,24.88h-40c3.91-24.94-34.61-28.33-52-30l160,5Z"/>
  <path class="st25" d="M682,485l-12.5,10c.43-11.89,2.94-24.25,4.78-36.22,5.53-35.91,12.11-71.82,18.72-107.78,1.55,17.46,4.9,35.96,3.99,53.49-1.39,26.75-12.24,53.76-14.99,80.51Z"/>
  <path class="st12" d="M781,449c-.4.28.68,2.82-3.48,3.06-4.45.25-1.53-2.82-3.07-3.12-16.62-1.51-33.76,5.16-48.19,12.87-1.27.68-1.91,1.99-2.26,2.19-4.62,2.64-6.53,3.59-11,7s-6.45,4.42-10,9c-.88,1.13-1.29,1.76-2,3-3.28,5.72-3.93,8.21-2.76,15.26.48,2.9,2.04,3.99,2.76,5.74,1.49,3.61,2,4.59,4,8,2.66,4.55,5.75,8.7,8.63,13.08,6.18-1.53,12.98-5.74,19.4-4.61,4.09,2.7-7.34,5.95-9.03,6.53-1.89.65-4.78.18-6.53,1.99-.88,1.12,1.09,2.23,1.53,3.01,1.09,1.94,2.33,2.92,3,4,.55.89,1.34,2.77,2,4,.7,1.31,1.32,2.68,2,4-1.66.08-3.34-.04-5,0-.71-2.43-2.74-4.09-4-6-1.37-2.07-1.24-2.02-3-4-.49-.55.21-2.98-2.44-3.01-2.37-.03-4.08,2.35-5.56,3.01-2.82,1.25-1.53.39-4,2-1.37.89-20.47,7.05-25,9-7.38,3.17-11.22,4.12-18,9-.55.4-1.87.33-3.03,1.42-7.92,7.47-5.52,16.15.03,24.05,1.42,1.48,3.36,1.13,5,1.53,8.94,2.16,17.93.63,27-1,7.93-1.43,15.73-3.4,23-7,.02,1.83.94,3.55,1,5l-18,6c-4.2-.68-9.64,1.56-14,2-5.06.51-11.29.36-16,1-1.97-1.85-5.74-1.18-8-2s-4.95-4.63-7-6c.03-.64.07-1.38,0-2-.52-4.65-2.51-7.05-2-13,.35-4.12,1.64-6.73,4-10,.79-1.1,2.88-1.68,4-4,2.59-.83,4.72-2.84,7-4,4.69-2.4,10.15-4.99,15-7,6.97-2.88,15.85-4.78,23-8,.36-.16.66-.85,1-1,.73-.33,2.04.18,3.54-.92,5.2-3.8-1.72-10.55-3.54-14.08-2.87-5.57-5.48-11.27-8-17,1.1-17.9,6.54-24.04,21-34,8.96-6.17,24.65-13.87,35-17,8.47-2.56,26.73-6.85,32,2Z"/>
  <path class="st10" d="M1211,78c4.07-.29,2.48-.16,2.97,2.48,4.77,25.47,5.79,56.53,6.03,82.52.29,30.44-3.05,53.9-5.99,83.51-3.02,30.41,1.34,46.21,3.98,75,2.42,26.38-.43,57.65-5.25,83.73-.6,3.28-1.82,6.48-2.89,9.61l-3.85.14c2.64-9,2.84-18.13,4.14-27.35,1.88-13.38,4.83-27.69,4.94-41.15.23-26.85-8.14-53.12-7.13-80.04,1.34-35.97,8.48-68.8,8.05-106.45-.27-23.11-3.07-44.3-5-67-.5-5.82.09-10.14,0-15Z"/>
  <path class="st14" d="M805,465c-18.3.74-49.05,10.58-66.23,4.73-4.17-1.42-8.87-6.43-14.77-5.73.35-.2.99-1.51,2.26-2.19,14.43-7.71,31.57-14.39,48.19-12.87,1.55.31-1.37,3.38,3.07,3.12,4.16-.24,3.07-2.78,3.48-3.06,1.53-1.05,32.29.59,37-2-2.02,1.9-11.84,15.53-13,18Z"/>
  <path class="st9" d="M742,95c-.17,3.04-2.05,4.32-2.11,7.48-.1,5.94,1.97,14.78,2.15,20.98,1.9,66.39-.05,132.65.92,199.08.46,31.67-.68,65.53,1,97,.2,3.69,1.6,7.5,1.98,11.04.29,2.68-2.48,1.04-3.94,1.42-.03-1.78-1.94-5.35-2.04-8.47-.83-28.11.44-56.41.04-84.53-.48-33.12-1.63-66.22-1.98-99.51-.02-1.69.64-4.45-1.02-5.49.02-1.67-.02-3.33,0-5,.38-36.47,1.46-72.55,0-109-.25-6.13-4.8-28.71,5-25Z"/>
  <path class="st25" d="M1326,121c-4.59,2.65-6.1,7.99-7.9,12.62-.41,1.04.53,1.71-1.59,1.38-2.89-3.76-6.34-8.02-10.04-10.97s-14.52-7.25-14.56-12.5c-.02-2.11,14.71-31.41,16.28-32.31l15.8-1.21c.67,3.05-.76,6.59-.62,9.33.12,2.4,1.51,5.31,1.62,6.68.73,8.97.8,18,1,27Z"/>
  <path class="st0" d="M1321,25c1.12,6,2.07,11.97,3,18l-14,3.01c5.67,9.76,5.77,22.99-1.67,31.86-19.75-1.9-27.24-26.22-13.37-40.42,5.63-5.76,18.43-9.58,26.04-12.46Z"/>
  <path class="st23" d="M1061,424c-50.83,3.94-101.25,12.35-152,17-10.2.29-20.24,1.87-31,2-14.69.18-27.93-1.68-42-2-.66-.01-1.34-.02-2,0l-28-7c-.52-.13-1.61-1.2-2.93-1.53-8.54-2.13-17.18-4.93-26.08-4.48v-3.99c15.01-.44,29.5,5.45,44,9,29.27,7.15,53.47,7.52,83.5,5l111.5-14c13.2-.32,26.22-1.16,39.51-1.02,1.69.02,4.45-.64,5.49,1.02Z"/>
  <path class="st12" d="M834,441c.66-.02,1.34-.01,2,0,.89,1.97,3.15,3.03,4,5,1.28,2.97.07,6.08,3.02,8.48,3.33,2.71,5.3.31,8.49.42,6.3.23,3.63,6.76-2.51,5.09-.98-.07-2.01,0-3,0-9.18.13-8.66-7.8-11.44-14.14-.64-.54-4.27-.75-5.07-.62-.61.1-.42,1.18-1.01,1.45-8.95,3.95-11.74,9.19-16.48,17.31-2.07,3.54-3.88,5.17-5,10-1.61,6.98-.19,11.32,4,17,13.83,18.74,42.77,21.83,63.04,27.46,6.01,1.67,15.18,4.17,15.96,11.54-1.33,0-2.67-.01-4,0-6.47-8.25-20.28-7.94-30-10.5-15.82-4.16-40.57-13.29-50-27.5-3.52-5.32-5.04-11.61-4-18,.08-.47,2.72-8.41,3-9,1.16-2.47,10.98-16.1,13-18,4.59-4.31,9.83-5.78,16-6Z"/>
  <path class="st12" d="M1011,441c17.39,1.67,55.91,5.06,52,30-.33,2.13-4.75,12.6-6,15-5.15,9.91-24.86,33.94-25,43.41,0,.58.57,1.18,1,1.59v1c-1.67,0-3.33,0-5,0-.72-1.7-.72-3.01-.39-4.8,2.2-11.82,17.09-29.73,23.39-41.2,3.12-5.68,4.72-7.34,6-14,1.07-5.56,2.7-9.69-2.1-14.4-8.94-8.76-42.58-12.74-55.4-13.62-2.91-.2-1.06-2.41-1.49-3.99,4.72.17,8.41.56,13,1Z"/>
  <path class="st25" d="M737,229l-5.99-63.51c.88-11.54-1.2-24.75-.07-36.05.39-3.94,2.86-7.06,6.06-9.44,1.46,36.45.38,72.53,0,109Z"/>
  <path class="st25" d="M677,539c-4.85,2.01-10.31,4.6-15,7,1.29-7.24.01-14.7,2.58-21.92l15.42-23.08c-2.77,11.42-1.66,26.14-3,38Z"/>
  <path class="st25" d="M346,163l10.23-15.27c7.14-.46,15.23-2.68,22.24-2.78,1.12-.02,2.79-.55,2.52,1.03-8.44,2.07-13.13,9.61-16.49,17.01h-18.5Z"/>
  <path class="st2" d="M482,137.01l-1.48,2c-29.53,1.4-58.91,5.65-88.52,4.98l18.5-2.98c23.69-1.16,47.84-6.58,71.5-4Z"/>
  <path class="st14" d="M749,447c-10.35,3.13-26.04,10.83-35,17,3.34-17.19,20.11-19.73,35-17Z"/>
  <path class="st2" d="M740,339l-4.04-28.46c-.16-25.54.77-51.02,1.04-76.54,1.66,1.04,1,3.79,1.02,5.49.35,33.3,1.5,66.4,1.98,99.51Z"/>
  <path class="st3" d="M1289,433c14.06-.71,25.21,7.04,28,21-3.26-.68-3.79-6.05-5.98-8.52-5.84-6.56-13.52-6.03-21.02-8.48-1.14-.37-2.23-1.41-3.9-1.1l-.1-1.9c.79-.12,1.82-.94,3-1Z"/>
  <path class="st10" d="M377,190c-3.01,2.02-5.95,4.02-9,6l-19,5c.74-2.72,1.32-3.23,2-5l26-6Z"/>
  <path class="st14" d="M1271,438c-5.16,4.87-11.24,10.35-14,17-.18-.17-.83.17-1,0-.79-.76-2.26-1.33-3.27-1.99-.95-.61-.63-1.97-.73-2.01,3.65-4.71,9.89-9.73,15.31-12.24,1.38-.64,2.81-.43,3.69-.76Z"/>
  <path class="st15" d="M701,515v6l-6-4c-1.96-8.15-2.51-10.64-2-19,2.52,5.73,5.13,11.43,8,17Z"/>
  <path class="st0" d="M1322.99,159c-5.85-5.06-7.28-13.7-6.98-20.99,2.13-.41,2.33,1,3.05,2.44,2.44,4.82,3.34,13.11,3.93,18.56Z"/>
  <path class="st15" d="M1252,451c.1.05-.22,1.4.73,2.01,1.01.65,2.48,1.23,3.27,1.99l-4,5c-1.01-1.2-5.84-6.04-7-7,1.67.51,2.82-1.94,3-2,.4-.13,3.77-.11,4,0Z"/>
  <path class="st14" d="M701,521v9c-.34.15-.64.84-1,1-3.7-4.08-3.82-9.12-5-14l6,4Z"/>
  <path class="st14" d="M1248,451c-.18.06-1.33,2.51-3,2-1.64-1.35-4.12-2.77-6-4,2.96,0,6.62.15,9,2Z"/>
  <path class="st25" d="M1342,498c11.78,3.89,22.67-3.64,34.29-4.03,3.6,5.22,8.24,9.37,13.7,12.54-13.08,7.21-36.13,14.63-37.99,31.99-1.15,10.72,3.02,19.31,11.98,25.08-15.25,18.69-4.6,43.39,20.06,42.88l1.82,4.95c-13.34,10.52-33.81,11.39-42.86,26.6l2.04-31.46v-68.08s-3.04-40.46-3.04-40.46Z"/>
  <path class="st25" d="M1341,653c3.91,13.12,14.03,20.93,27.99,19.01-1.57,3.97-4.95,6.39-7.16,10.33-1.95,3.47-2.74,7.78-4.41,10.59-4,6.74-9.29,7.95-9.5,18.56-.3,15.43,8.59,19.69,19.8,26.29.58.34,2.04.14,1.27,1.71-.43.88-10.8,7.43-12.89,9.11-9.49,7.63-16.01,15.17-21.1,26.4.14-40.72,4.39-81.3,6-122Z"/>
  <path class="st22" d="M1337,329c7,1.91,12.99-.1,20,0-2.12,5.99-5.35,11.02-5.87,17.62-.67,8.59,2.76,19.66,8.83,25.92,3.99,4.12,8.91,5.01,13.04,8.45l-37,17.01c-.18-23.03,1.25-46.14,1-69Z"/>
  <path class="st22" d="M1331,167c3.68,1.1,7.12,2.81,10.94,3.56,1.62.31,7.56,1.44,8.56,1.44h30.5l-50,42c-.34-15.64.27-31.36,0-47Z"/>
  <path class="st22" d="M1431,190v23.5c0,4.81-22.55,23.16-26.98,29.02-2.76,3.65-5.86,8.05-7.03,12.48-3.1.78-1.79-3.38-2.67-5.81-2.22-6.13-5.64-10.33-10.24-14.82l46.93-44.36Z"/>
  <path class="st2" d="M1337,439c6.08,1.97,11.41,3.83,17.99,3.01-3.03,7.62-8.89,10.94-16.99,10.99-1.88-4.26-.77-9.37-1-14Z"/>
  <path class="st0" d="M1327,39c-.57-5.47-1.14-10.58-2-16l9-4c.05.45,1.14,1.42,1.11,3.42-.08,5.71-3.44,13.18-8.11,16.58Z"/>
  <path class="st2" d="M1330,104l7.01,5.51-7.01,6.49c-.09-3.99.11-8.02,0-12Z"/>
  <path class="st19" d="M585,785c2.58-22.1,5.83-35.66,10.51-56.99,5.61-25.54,7.97-55.66,23.49-77.01-10.67,43.1-20.55,86.54-32.09,129.41-.43,1.61-.49,3.44-1.91,4.59Z"/>
  <path class="st2" d="M348,321c3.99,0,8.01,0,12,.01-18.64,16.88-11.05,43.29,14.52,45.97,4.61.48,11.21.85,15.94,1.06,10.82.47,21.88-1.14,32.54.97l-24.32,12.16c-12.22,9-15.58,22.03-7.87,35.52,1.37,2.39,4.03,3.57,4.19,6.3-22.41,3.3-54.1,13.32-49.54,42.06,2.17,13.7,11.84,20.15,23.5,25.57-.1,2.95-2.08,5.22-2.72,8.11-.55,2.5.29,5.56-.39,7.61-.28.84-7.25,5.98-8.84,8.16-6.62,9.1-5.84,22.82,2,30.99,1.86,1.94,8.08,4.79,8.72,5.78,1.09,1.65,1.49,8.89,3.09,12.41,2.66,5.84,9.92,11.23,15.96,13.04,3.46,1.04,9.35.82,11.24,1.76,1.36.67,3.1,5.56,4.56,7.44,9,11.64,16.08,9.28,28.91,10.09,47.06,2.99,118.69,2.41,164.72-6.3,11.64-2.2,25.55-6.55,27.73-20.27.7-4.41-1.38-12.48-.79-14.71.37-1.4,4.59-5.69,5.74-8.34,3.43-7.93,2.09-14.05-.83-21.82.2-.91,11.08-4.59,12.94-4.57.41,0,1.54.94,2.59.97,4.25.13,8.25-3.29,11.41-5.97.18,6.36-.77,12.77-2,19-1.56,2.34-9.99,12.99-7.99,14.99,1.65-.02,4.64-.21,5.99-.99v6c-2.36,3.27-3.65,5.88-4,10-1.77,1.75-5.21,5.38-6.14,7.46s.26,3.57-.32,4.52c-.98,1.61-5.72,2.04-4.54,6.01,5.16.76,8.1-4.42,12.99-4.99.07.62.03,1.36,0,2-.17,3.56-4.51,14.74-2.04,16.54l2.92.33,6.12-10.87c2.26.82,6.03.15,8,2-8.01,1.08-14.79,11.93-17,19,.49-2.38-2.94-3.98-3.99-3-2.11,1.97.51,17.25.99,21l-.99,17.01c-6.31-.43-12.39,1.43-18.01,3.99,2.3-9.05,6.84-34.88,10.18-41.32,1.14-2.2,4.38-1.62,4.71-3.25l-1.5-4.5-297.4,7.07c-.19-5.97.27-12.04,0-18.01,5.6-7.92,3.06-14.41,2.96-22.46-.48-39.78,2.3-81.56.08-121.08-.26-4.67-1.07-11.32-3.04-15.46.35-35.3,1.49-69.83,3-105h4ZM352.74,367.17c-2.33.47-6.6,4.52-7.3,6.77-2.05,6.69-2.65,22.27-.99,29.11,2.05,8.42,9.13,19.4,18.59,12.49,8.68-6.34,10.49-25.77,7.26-35.34-2.12-6.27-10.45-14.48-17.56-13.03Z"/>
  <path class="st2" d="M694,584c4.85.78,11.61,5.96,18,4,1.91,38.06,2.2,76.37,3.04,114.46.44,19.88,1.22,39.61.95,59.54l-6.03-36.46c-.55-15.47.55-30.65,2.11-45.99l-3.14-1.1c-1.28-17.51-1.96-35.25-5.39-52.48-.7-3.51-1.67-8.88-3.03-12-.98-2.25-.73-2.3-3.5-1.96-2.54-12.86-4.36-19.7-17-26,4.36-.44,9.8-2.68,14-2Z"/>
  <path class="st9" d="M647,606c-1.91,6.11,1.96,17.64,2.86,24.64,4.72,36.73,10.31,72.52,15.98,109.02,4.22,27.18,7.43,54.58,11.17,81.83l-.94,2.07c-7.98,2.04-3.3-3.68-3.34-5.84-.27-18.04-6.87-50.89-9.88-70.08-6.48-41.29-13.52-82.15-18.86-123.64-.48-3.75-3.1-19.03-.99-21,1.05-.98,4.48.62,3.99,3Z"/>
  <path class="st13" d="M266,29c18.73-.92,38.19.69,57,0,2.28,7.86.5,18.05.96,26.54.34,6.32,1.85,12.99,2.04,19.46,1.21,41.27-.12,83.6,0,125,0,2.33,0,4.67,0,7,0,2.99,0,6.01,0,9,.03,13.65-.03,27.35,0,41,.02,11.32-.02,22.68,0,34,.1,58.63.98,117.47,1,176,0,3.33-1,7.81-1,12,0,6.65,0,13.35,0,20,0,7.06,0,13.85,0,21-.01,9.65,0,19.35,0,29,0,5.32-.01,10.68,0,16,.02,6.98-.07,14.02,0,21,.02,1.67-.03,3.33,0,5,.03,1.29-.43,5.96.5,6.01,1.64-3.08,6.24-4.44,9.5-6.01-.05,3.99.03,8.02,0,12.01h-10.01s0,5,0,5l10-1.01-2.01,71-7.99-.99.94,4.56,6.07.44c-2.92,18.67-4.69,37.5-3.94,56.44l-3.1,1.05.02,3.5h4c.86,13.44,3.82,30.24,2.06,43.56-.83,6.27-8.29,6.31-10.75,11.47-16.68,1.36-33.19.45-49.76-.06-6.49-.2-13.05.22-19.54.05l13.99,3.98c-21.92,2.94-44.42,10.41-66.5,12.03-1.36.1-1.94.08-1.48-1.49.95-3.25,4.39-7.31,5.55-11.46.39-1.39,1.44-3.46-1.08-3.08-5.01.8-7.46,15.21-11.2,16.8-16.08,1.86-32.61,4.42-48.8,4.2-1.6-.02-3.2-.94-4.48-.99-1.9-9,3.72-12.41,8-19h-57l-1,15c-16.98-2.42-31.07-8.33-46.78-10.72-5.73-.87-11.44-.44-17.11-1.39-.62-7.27-1.55-14.61-2.12-21.88,1.54-.43,3.82,1.38,4.01-1.47,1.05-15.44-.79-31.98-.01-47.53l-4.99,2.99c.07-6.63-.28-13.38,0-20l1.84.13,3.16,5.87v-24c-1.45.46-3.6,4.62-4,6l3.04-42.46c5.12-194.82,11.24-389.21,5.92-584-.37-13.48.35-27.05.05-40.53,1.54-1.47,37.56-1.34,42.53-1.05,10.27.6,20.69,3.42,30.97,4.03,25.14,1.51,48.45-3.73,73-4.98,15.27-.78,30.75.64,46.03.03,14.15-.57,28.39-3.35,42.46-4.04Z"/>
  <path class="st17" d="M339,320c-.4,9.31-1.66,18.93-2,28-2.43,3.69-5.64,6.96-6.06,11.44-1.24,13.18,1.13,26.6,3.75,39.43.36,1.78-.44,3.72,2.31,3.14-.23,31.37-.1,62.71-1,94-.64-.2-1.45-.94-2-1-1-8.62-1.24-17.36-2-26-.05-.55-.96-1.46-1-2-.35-4.57-.85-9.99-1.04-14.46-1.75-40.18-4.2-88.32-2-128.08.17-3.02.79-6.2,1.04-9.46l10,5Z"/>
  <path class="st4" d="M88,814l1-15h57c-4.28,6.59-9.9,10-8,19-17.22-.61-32.92-1.57-50-4Z"/>
  <path class="st4" d="M26,458c-.01,2.66.03,5.34,0,8-1.66,1.04-1,3.79-1.02,5.49-.1,8.33-.09,16.7,0,25.03.02,1.69-.64,4.45,1.02,5.49-.14,4.57-.81,8.61-1,13-19.09-8.45-20.72-25.62-11.17-42.67,2.51-4.48,7.54-12.33,12.17-14.33Z"/>
  <path class="st19" d="M333,195l-7,5c-.12-41.4,1.21-83.73,0-125,1.34,5.94,2.43,12.45,2.99,18.51,3.16,33.73,3.55,67.63,4.01,101.49Z"/>
  <path class="st24" d="M341,585c-2.32-52.21-.52-106.37,0-159,1.97,4.14,2.78,10.79,3.04,15.46,2.22,39.53-.56,81.3-.08,121.08.1,8.05,2.64,14.54-2.96,22.46Z"/>
  <path class="st20" d="M353,272c.19,2.36,1,7.14,1,8.5v25c0,2.82-5.72,11.74-6,15.5h-4c.7-16.19.67-31.87,0-48,3.19.66,6.13-.67,9-1Z"/>
  <path class="st4" d="M25,36v45.99c-6.38-2.26-11.28-11.13-11.9-17.62-.81-8.51,4.63-16.15,5.9-24.38h4.01s0-4.01,0-4.01h2Z"/>
  <path class="st7" d="M362,210c-3.57,10.85-12.95,21.12-20,30-.66-9.62-2.53-19.34-3-29,2-.02,4,.03,6,0,3.28-.05,5.46-.79,8-1,2.95-.25,6.03.17,9,0Z"/>
  <path class="st20" d="M339,275c.67,16.02.68,28.99,0,45l-10-5c1-13.1,2.84-24.48,3-38l7-2Z"/>
  <path class="st2" d="M168,29c-18.57,1.55-37.64,4.8-56.5,5l-41.5-5c32.65-.03,65.35.02,98,0Z"/>
  <path class="st22" d="M337,402c-2.75.59-1.95-1.36-2.31-3.14-2.62-12.82-4.99-26.24-3.75-39.43.42-4.48,3.64-7.75,6.06-11.44-.67,17.86.13,36.09,0,54Z"/>
  <path class="st20" d="M334,213c-.13,6.41-1.38,9.5-1.95,14.55-1.11,9.8-2.07,19.65-3.05,29.45-1.15.64-1.18,1.47-3,0-.03-13.65.03-27.35,0-41l8-3Z"/>
  <path class="st4" d="M21,734l4.99-2.99c-.78,15.55,1.06,32.09.01,47.53-.19,2.85-2.47,1.04-4.01,1.47-1.18-15.3-1.16-30.61-1-46Z"/>
  <path class="st4" d="M17,776c-11.3-8.48-13.16-27.64-1-36-.01,12.24.25,23.8,1,36Z"/>
  <path class="st3" d="M338,262c-1.64-.45-3.28-.9-5-1-2.07-.12-2.43.25-3.79,2.71-.57,7.96-.91,15.86-1.21,23.83-.07,1.92,1.03,4.01-2,3.46-.02-11.32.02-22.68,0-34,1.82,1.47,1.85.64,3,0,6.31-3.5,4.93-13.07,6.27-19.24.21-.97.36-3,1.72-2.75.53,8.91.44,18.11,1.01,26.99Z"/>
  <path class="st17" d="M323,29c-18.81.69-38.27-.92-57,0,8.51-1.71,17.85-3.47,26.51-3.99,7.13-.42,20.26-.88,27.04-.06,1.11.13,2.26-.07,3,1.04.67.88.22,2.23.45,3.01Z"/>
  <path class="st17" d="M332,542c-2.06,2.21-3.89,4.81-6,7,0-9.65-.01-19.35,0-29l5-9,1,31Z"/>
  <path class="st20" d="M352,263c-2.99.08-6.01-.06-9,0-.32-5.69-.61-11.32-1-17,1.72-.89,2.87-2.52,4-4,4.89,5.49,5.13,14.11,6,21Z"/>
  <path class="st1" d="M336,547c.02,1.9-1.55,3.47-2,5-1.35,4.62.51,5.01-3,9-1.07,1.22-3.64,2.82-5,4-.01-5.32,0-10.68,0-16,2.11-2.19,3.94-4.79,6-7,.87-.94,3.41-2.17,4-3,.07,2.65-.14,5.35,0,8Z"/>
  <path class="st1" d="M334,495c.55.06,1.36.8,2,1-.02.67.02,1.33,0,2l-2,5-3,8-5,9c0-7.15,0-13.94,0-21,1.61-.16,3.68-3.87,4-4,.43-.18,3.21-.09,4,0Z"/>
  <path class="st24" d="M338,262c.26,4.05.82,8.61,1,13l-7,2c.06-5.11-.89-11.51,1-16,1.72.1,3.36.55,5,1Z"/>
  <path class="st19" d="M330,586h-4c-.07-6.98.02-14.02,0-21,1.36-1.18,3.93-2.78,5-4l-1,25Z"/>
  <path class="st8" d="M338,195l13.98-12.51c-2.74,3.58-4.18,12.46-6.52,15.46-.94,1.2-5.64,2.87-7.45,4.05-.08-2.32.12-4.68,0-7Z"/>
  <path class="st19" d="M352,263c.38,3.01.75,5.96,1,9-2.87.33-5.81,1.66-9,1-.11-2.7-.81-6.63-1-10,2.99-.06,6.01.08,9,0Z"/>
  <path class="st19" d="M336,591c-3.26,1.57-7.86,2.93-9.5,6.01-.93-.05-.47-4.72-.5-6.01,1.94-.37,4.11-.52,6-1,.54-.14,1.35.15,1.99,0,.1-1.33-.05-2.67.01-4,.27-6.13-.23-12.34.01-18.49l1.98-10.51c-.08,11.31.15,22.68.01,33.99Z"/>
  <path class="st6" d="M22,702c.4-1.38,2.55-5.54,4-6v24l-3.16-5.87-1.84-.13c.16-3.66-.01-8.51,1-12Z"/>
  <path class="st1" d="M334,206l-8,1c0-2.33,0-4.67,0-7l7-5c.05,3.76.91,7.09,1,11Z"/>
  <path class="st19" d="M334,206c.05,2.32.05,4.68,0,7l-8,3c0-2.99,0-6.01,0-9l8-1Z"/>
  <path class="st6" d="M26,502c-1.66-1.04-1-3.79-1.02-5.49-.09-8.33-.1-16.7,0-25.03.02-1.69-.64-4.45,1.02-5.49-.11,11.97.36,24.05,0,36Z"/>
  <path class="st1" d="M330,586h3l-1,4c-1.89.48-4.06.63-6,1-.03-1.67.02-3.33,0-5h4Z"/>
  <path class="st19" d="M338,205l4.95.06c-.04,2.31.46,4.24,2.05,5.94-2,.03-4-.02-6,0l-1-6Z"/>
  <path class="st17" d="M336,498c-.23,7.64.18,15.35-.01,22.99l-1.99-17.99,2-5Z"/>
  <path class="st10" d="M336,539c-.12-4.44-.18-9.06,0-13.51.05-1.21-.76-3.72.99-3.49-.7,4.5,1.45,13.57-.99,16.99Z"/>
  <path class="st10" d="M336,547c.1,1.87,2.06,6.02.99,8.99l-2.99-3.99c.45-1.53,2.02-3.1,2-5Z"/>
  <path class="st10" d="M334,586c-.06,1.33.09,2.67-.01,4-.64.15-1.45-.14-1.99,0l1-4h1Z"/>
  <path class="st4" d="M26,208v61c-4.8-3.64-4.59-12.93-3.95-18.45.24-2.05,2.34-3.86,1.82-5.84-.39-1.49-5.14-6.74-6.09-9.99-2.31-7.88-.69-19.16,5.24-25.21.96-.98,1.31-1.88,2.98-1.52Z"/>
  <path class="st15" d="M967,484c-3.52,7.23-8.29,15.14-11.17,22.33-8.84,22.01,3.82,25.98,21.86,16.86,3.32-1.68,28.54-19.13,29.2-20.8.24-.6.54-2.35-.39-2.39-1.55-.18-2.82.18-4.21.79-9.22,4.04-19.03,15.17-29.3,19.7-33.13,14.62-4.39-27.13.02-36.48,26.01.29,52.15-1.1,78,2-6.29,11.47-21.19,29.39-23.39,41.2-.33,1.79-.33,3.1.39,4.8-46.11.07-92.01-2-138-2-.78-7.37-9.96-9.86-15.96-11.54-20.27-5.63-49.2-8.72-63.04-27.46l156-7Z"/>
  <path class="st15" d="M724,464c5.91-.7,10.6,4.31,14.77,5.73,17.18,5.85,47.92-3.98,66.23-4.73-.28.59-2.92,8.53-3,9-28.32,2.06-57.29,2.35-85,8.5,7.11,8.97,16.47,10.46,27.41,9.42,13.63-1.29,18.98.34,32.04,1.12,9.92.59,19.67-1.24,29.54-1.04,9.42,14.21,34.18,23.35,50,27.5,9.73,2.56,23.53,2.24,30,10.5-51.9.45-94.74,8.88-148,3-1.54-6.74-9.9-1.96-14-6,1.69-.58,13.12-3.83,9.03-6.53-6.42-1.12-13.22,3.09-19.4,4.61-2.88-4.38-5.97-8.54-8.63-13.08-.07-6.65.1-13.35,0-20,3.18-3.46,5.98-8.05,10.93-9.09l-2.93-11.91c4.47-3.41,6.38-4.36,11-7Z"/>
  <path class="st8" d="M702,536l3,9.99c-3.38-.14-20.41,3.13-14,8.51,2.36,1.98,16.79,2.91,15.99-.99-.52-2.56-5.79-.35-5.99-2.5,7.52-1.67,15.29-2.63,22.99-3.01,3.78,9.9,2.97,18.21-8,22,.02-5.76.73-11.28,1-17l-3.85.15c-1.95,6.44-2.23,13.18-2.15,19.85-7.27,3.6-15.07,5.57-23,7-8.5-9.81-11.94-22.07-11-35,4.53-1.95,23.63-8.11,25-9Z"/>
  <path class="st14" d="M1159,526c-9.02.91-18.05,1.57-27,3-4.99-1.16-3.26-.24-7,1-30.55,2.91-61.3,1.88-92,2v-1c17.55-.57,35-5.07,52.46-6.04,15.98-.89,33.06-.8,49-1,8.18-.1,16.66-.33,24.54,2.04Z"/>
  <path class="st2" d="M1207,528c-.45,3.39.31,7.49,0,11-22.31-.32-45.91.77-68-1,10.82-3.5,23.6-1.47,33-9,11.66-.84,23.28-1.34,35-1Z"/>
  <path class="st14" d="M1260,528c-1.88,4.96-6.37,8.48-10,12-13.04-1.29-26.17-.85-39-1,.86-3.48.49-7.74,1-11,15.98-.07,32.02.09,48,0Z"/>
  <path class="st2" d="M1111,539c1.33-.02,2.67-.04,4,0,.61,2.74-1.48,1.84-2.93,2.51-21.2,9.89-47.05,11.2-68.07.49,4.15-.2,8.39.28,12.54.04,1.3-.08,2.61-1.04,2.96-1.04h28c6.78,0,16.46-1.88,23.5-2Z"/>
  <path class="st12" d="M1286,528c2.48,6.15-1.1,4.02-4.29,5.21-2.78,1.03-2.98,5.73-2.75,8.29,1.06,11.69,16.12,14.52,25.56,13.5,7.06-.76,7.19-8.94,3.03-12.05s-16.93.05-15.04-6.96c5.11-.27,9.76-.03,14.49,2.01,6.72,2.89,9.66,10.8,5.89,17.39-.6,1.06-5.12,4.43-5.89,4.61-6.29,1.46-15.82-1.26-22-3-1.46-4.42-6.06-8.71-10-11-3-7.24-.18-13.01,5-18,1.98-.04,4.04.16,6,0Z"/>
  <path class="st19" d="M1280,528c-5.18,4.99-8,10.76-5,18-7.71-4.47-16.32-5.14-25-6,3.63-3.52,8.12-7.04,10-12,6.65-.04,13.35.13,20,0Z"/>
  <path class="st24" d="M1111,539c-7.04.12-16.72,2-23.5,2h-28c-.35,0-1.66.96-2.96,1.04-4.15.24-8.39-.24-12.54-.04-2.08-1.06-3.46-2.18-5-3,19.54-.35,40-2.94,59.49-1.99,3.51.17,9.1,1.01,12.51,1.99Z"/>
  <path class="st18" d="M887,539c-.27,1.13.31,2.99,0,4l-36,4c.56-2.01,1.82-4.15,2-6,11.53,1.08,22.61-1.84,34-2Z"/>
  <path class="st19" d="M1172,529c-9.4,7.53-22.18,5.5-33,9-.63-.05-1.83-.9-3-1l2-4c11.24-1.7,22.65-3.19,34-4Z"/>
  <path class="st12" d="M1132,529c2.38.55,6.43,1.28,6,4l-2,4c-4.15-.36-19.34-1.2-22.02-2.48-.45-.22-1.26-1.29-.98-1.51,4.3.09,8.07-1.71,12-3.01s2.01-2.16,7-1Z"/>
  <path class="st15" d="M927,540l-35,3c.24-1.29.04-3.53,0-5,11.67.28,23.61-1.05,35,2Z"/>
  <path class="st7" d="M950,536c.83,1.57,3.4,1.01,5,1,11.32-.07,22.24-1.02,33.5-1.09,3.21-.02,6.07,1.1,9.5,1.09v1c-2.43.26-5.05-.22-7.54-.04-1.29.09-2.63,1.04-2.96,1.04h-32c-1.57,0-7.11-.76-9.5-1v-2c1.33,0,2.67-.03,4,0Z"/>
  <path class="st19" d="M742,539c.67,0,1.33,0,2,0l3,4c-7.01.31-14,.66-21,1-.68-1.32-1.3-2.69-2-4,6.09.69,12-.92,18-1Z"/>
  <path class="st15" d="M744,539c9.07-.06,18.01,1.19,27,2.01l-12.5,1.98c-3.82.18-7.68-.16-11.49.01l-3-4Z"/>
  <path class="st14" d="M724,527c4.1,4.04,12.46-.74,14,6-6.11-.67-13.11-2.46-19-1-.44-.78-2.41-1.89-1.53-3.01,1.75-1.8,4.64-1.34,6.53-1.99Z"/>
  <path class="st14" d="M742,539c-6,.08-11.91,1.69-18,1-.66-1.23-1.45-3.11-2-4,6.57-.13,13.82.61,20,3Z"/>
  <path class="st14" d="M714,534l-4.62,4.88-3.38-4.88c1.48-.66,3.19-3.04,5.56-3.01,2.65.03,1.95,2.47,2.44,3.01Z"/>
  <path class="st21" d="M850,537c-1.28-.04-5.05.82-4.99-.99,6.26.79,12.43-.8,18.45-1.06,2.6-.11,5.45-.06,8.06.05,1.22.05,3.72-.76,3.49.99-7.65.94-15.28,1.13-23,1.01-.67-.01-1.33.02-2,0Z"/>
  <path class="st24" d="M721,544c-3.19.07-5.87-.05-8.99,1l4.99-7c1.26,1.91,3.29,3.57,4,6Z"/>
  <path class="st20" d="M946,536v2c-3.62-.36-7.36-1.21-11.01-1.5,0-.87,9.5-.51,11.01-.5Z"/>
  <path class="st20" d="M998,537c.85,0,5.17-2.55,7.01-.5-2.24.39-4.77,1.27-7.01,1.5v-1Z"/>
  <path class="st20" d="M955,537c-1.6.01-4.17.57-5-1,1.61.04,4.16-.6,5,1Z"/>
  <path class="st18" d="M806,541c-.13,0-1.07.96-2,1l2-1Z"/>
  <path class="st25" d="M1330,784c-5.05.81-9.26,11.75-12.43,11.93-1.72.1-4.93-1.54-7.17-1.83-2.44-.31-10.7-.32-12.2-1.3-.3-.19-3.14-5.93-3.19-6.35-.92-8.69,15.17-25.64,18.85-34.1,6.05-13.87,3.13-25.86-7.7-36.05,4.66-29.41,2.7-59.27-1.3-88.66-1.43-10.47-8.52-38.46-6.39-46.67,1.54-5.91,8.18-13.78,8.53-20.97.77-.18,5.28-3.56,5.89-4.61,3.77-6.58.83-14.5-5.89-17.39,1.54-4.97-5.39-11.59-5.74-14.62-.39-3.36,3.53-11.4,3.74-15.38,13.5.83,21.77-2.1,33-9,2.36,13.08,1.53,26.34,1.96,39.54,2.68,83.25-9.93,163.12-9.96,245.46Z"/>
  <path class="st19" d="M712,578c.14,3.31-.17,6.69,0,10-6.39,1.96-13.15-3.22-18-4l18-6Z"/>
  <path class="st8" d="M1330,271c-25.03-7.47-21.8-38.98-3-52,.4,17.4,2.06,34.62,3,52Z"/>
  <path class="st19" d="M1333,327c-24.34-7.22-20.45-37.8-2-50,.81,14.6.68,28.93.96,43.54.04,2.26,1.02,4.34,1.04,6.46Z"/>
  <path class="st8" d="M1338,493c-1.16.8-1.63,1.17-3,2-11.21-9.23-13.37-29-1-38,.92,12.02,2.18,24.09,4,36Z"/>
  <path class="st19" d="M1333,434c-8.85-7.51-9.32-22.76-1-31,.08,10.45.57,20.63,1,31Z"/>
  <path class="st10" d="M1205.99,69.01c.1,1.38.14,2.7-.49,4-2.38,4.89-32.79,9.11-39.13,9.87-68.53,8.25-140.89,2.3-209.83,10.17-7.68.13-15.41-.3-23.08-.08-23.49.66-47.42,1.43-70.92,2.08-33.19.92-75.02,5.95-107.03,2.95-1.74-.16-6.57-1.11-7.84-1.91-4.9-3.07,4.31-12.79,3.33-3.08,1.46,1.41,35.52,1.19,40.54,1.05,2.13-.06,4.05-.96,5.97-1.03,76.61-2.93,153.34-4.89,229.98-8.02,37.12-1.52,74.92-1.57,112.05-3.95,15.72-1.01,41.66-3.03,56.26-7.74,3.8-1.23,6.37-3.91,10.2-4.29Z"/>
  <path class="st19" d="M1016,424l-111.5,14c-30.02,2.53-54.22,2.16-83.5-5,15.14-1.2,30.35-2.99,45.51-3.99,49.76-3.27,99.61-3.79,149.49-5.01Z"/>
  <path class="st8" d="M1216,160c-21.98-16.02-16.72-46.18-5-67,1.93,22.7,4.73,43.89,5,67Z"/>
  <path class="st18" d="M1290,437c7.5,2.45,15.18,1.92,21.02,8.48,2.2,2.47,2.72,7.84,5.98,8.52.12.58-.06,1.35,0,2l-.99,1.49.99.51c-.19,4.39-.42,10.84-1,15-2.64-.59-1.91,1.38-2.54,2.91-2.06,5.05-3.69,8.4-6.46,13.09,3.6-18.49-8.66-36.3-17-52Z"/>
  <path class="st3" d="M1316,473c-1.5,10.7-6.53,20.78-12,30-4.01-.59-4.57-.95-8-2,2.97-.9,7.2-5.06,9.01-7.5,1.39-1.87,1.32-3.37,1.99-4.5,2.77-4.69,4.4-8.03,6.46-13.09.63-1.54-.1-3.5,2.54-2.91Z"/>
  <path class="st3" d="M1317,458l-.99-.51.99-1.49c.14,1.46.05.94,0,2Z"/>
  <path class="st7" d="M631,208c1.89.61,3.49,4.92,5.96,5.62,1.02.29,5.62-1.25,6.04-1.62l8,6c-.67,3.33-3,12.04-3,14.5v16c0,.88-4.28,6.48-5,8.5-3.91,1.91-8.06,3.96-12.22,5.28-3.93,1.25-21.97,4.24-22.65,6.35-.61,1.87.06,4.77-.6,7.4-1.45,5.77-8.36,13.81-14.52,14.98-.29,1.34,1.04,1.13,2,1.46,9.43,3.27,17.47,2.63,24.52,11.5,12.33,15.52,2.26,36.52-16.52,39.03,12.81,24.16-9.12,41.59-32,43-.26,1.38-.21,1.28.64,2.08,2.16,2.04,5.29,3.61,7.36,6.42,8.01,10.87,5.66,24.14-3.98,33.02l-17.02,8.48h14.5c2.69,0,11.64,2.35,14.49,3.51,11.14,4.51,17.53,15.52,16,27.5,17.99.59,40.75.42,51.01,18,.08.84,0,1.76,1,2-5.25,10.6-11.52,21.34-14,33-1.87-.02-12.75,3.66-12.94,4.57,2.92,7.77,4.26,13.89.83,21.82-1.15,2.66-5.37,6.95-5.74,8.34-.59,2.23,1.49,10.29.79,14.71-2.18,13.72-16.09,18.07-27.73,20.27-46.03,8.71-117.66,9.29-164.72,6.3-12.82-.81-19.91,1.54-28.91-10.09-1.46-1.88-3.2-6.77-4.56-7.44-1.9-.94-7.79-.72-11.24-1.76-6.03-1.81-13.29-7.21-15.96-13.04-1.61-3.52-2.01-10.75-3.09-12.41-.65-.99-6.86-3.84-8.72-5.78-7.84-8.17-8.62-21.89-2-30.99,1.59-2.19,8.56-7.32,8.84-8.16.68-2.05-.16-5.11.39-7.61.63-2.9,2.62-5.17,2.72-8.11-11.66-5.42-21.33-11.86-23.5-25.57-4.56-28.73,27.13-38.76,49.54-42.06-.16-2.73-2.82-3.91-4.19-6.3-7.71-13.49-4.36-26.52,7.87-35.52l24.32-12.16c-10.65-2.11-21.72-.5-32.54-.97-4.74-.21-11.33-.57-15.94-1.06-25.57-2.68-33.16-29.09-14.52-45.97-3.99-.02-8.01,0-12-.01.28-3.76,6-12.68,6-15.5v-25c0-1.36-.81-6.14-1-8.5,13.07-1.49,26.33-2.02,39.36-3.94l1.64-8.05c-.79-.88-21.09-2.4-23.55-2.05-6.31.9-8.01,4.76-18.45,5.04-.87-6.89-1.11-15.51-6-21,5.7-7.44,17.05-21.67,20-30,20.67.63,41.36,2.79,62,4,5.35.31,10.62,1.17,16,1,3.25,1.14,8,1.63,11.51,1.99,15.52,1.58,31.3,2.59,46.86,2.88l21.63-3.87,13-1c30.43.47,61.15-6.58,91-9,.75-.06,2.48-.17,3,0Z"/>
  <path class="st25" d="M654,270l-2,58c-2.99,6.31-12.69,20.25-1,21-.2,4.15.27,8.39.04,12.54-1.4,25.26-2.4,52.64-1.09,78,.16,3.15.47,6.68,2.05,9.45-.49,2.86.04,3.04,0,5-.2,10.4.99,20.63,2,31-10.25-17.57-33.02-17.4-51.01-18,1.52-11.97-4.86-22.99-16-27.5-2.85-1.16-11.8-3.51-14.49-3.51h-14.5l17.02-8.48c9.64-8.89,11.98-22.16,3.98-33.02-2.07-2.81-5.2-4.38-7.36-6.42-.85-.8-.9-.7-.64-2.08,22.88-1.41,44.82-18.84,32-43,18.79-2.51,28.85-23.51,16.52-39.03-7.05-8.88-15.09-8.23-24.52-11.5-.96-.33-2.29-.12-2-1.46,6.17-1.17,13.07-9.21,14.52-14.98.66-2.63,0-5.52.6-7.4.68-2.11,18.72-5.1,22.65-6.35,4.16-1.32,8.31-3.37,12.22-5.28-3.33,9.31,1.99,13.34,11,13Z"/>
  <path class="st8" d="M416,197c2.81,6.55,5.14,9.73,13,7,20.54,10.31,40.55,5.98,61-1,2.21-.75,3.95-.08,7-2l27.54-2.06c35.69,3.71,71.81.52,107.46,3.06.08,2.14.47,3.95.99,5.99h-1.99c-.52-.16-2.25-.05-3,0-22.89-.54-45.71,2.16-68.36,5.14-7.52.99-15.28,2.07-22.64,3.86l-13,1-80-1c-5.38.17-10.65-.69-16-1l-36.51-4.99-24.49-1.01c.4-3.1-.54-4.36-1.58-7.01.38-.8,13.28-9.61,14.58-9.99,5.36-1.56,19.57-1.97,25.06-.56,3.8.98,7.16,3.5,10.94,4.56Z"/>
  <path class="st25" d="M688,289c-.33,16.05.49,32.15,3,48-2.65,16.42-6.73,32.52-9.01,48.99-8.29-2.09-17.48,7.06-24.48,7.04-1.55,0-1.75.24-1.49-1.51,7.3-16.1,18.85-32.51,25.16-48.85,1.61-4.17,4.99-11.14,1.21-14.63-3.96-1.17-20.46,13.85-26.39,15.95v-14c9.59-19.29,21.97-38.27,25.01-60,1.38-.3,1.07,1.04,1.47,1.99,2.22,5.28,3.74,11.5,5.52,17Z"/>
  <path class="st8" d="M546,197c-.49-2.14,1.23-2.13,2.41-3.04,4.03-3.11,25.25-21.29,27.95-20.8,8.51,8.76,17.58,26.23,32.54,19.23,4.69-2.2,17.21-16.9,21.01-14.3,1.91,6.48,1.77,13.27,2.09,19.91-28.54-1.34-57.38-1.44-86-1Z"/>
  <path class="st8" d="M482,201c-4.79.34-12.81,4.51-19.46,5.04-10.47.83-19.6-1.37-29.54-4.04,6.46-4.07,14.34-13.8,20.53-18.97,18.73-15.65,14.89-5.23,22.96,9.99,1.54,2.9,3.58,5.38,5.52,7.98Z"/>
  <path class="st2" d="M658,269c6.5-1.35,12.15-5.72,18.85-4.86,4.19,2.67-5.71,26.98-7.68,31.53-3.54,8.2-8.29,16.89-13.17,24.33.42-3.01,1-11.68,1-14.5v-20c0-.36.97-1.66,1.04-2.96.24-4.48-.24-9.05-.04-13.54Z"/>
  <path class="st25" d="M654,397c9.23,1.41,16.08-6.86,25-7,.58,7.88-4.2,15.81-7.82,22.67-4.84,9.16-11.31,18.75-17.17,27.33.38-5.29.91-40.37,0-43Z"/>
  <path class="st2" d="M655,349c2.15-.58,10.17-6.15,12.72-7.78,2.72-1.74,8.76-7.33,10.79-8.21,1.23-.53,1.88.24,1.48,1.47l-26,51.52,1-37Z"/>
  <path class="st5" d="M529,196c7.34.79,8.98,1.12,17,1,28.62-.44,57.46-.34,86,1,.06,1.33-.05,2.67,0,4-35.65-2.54-71.77.65-107.46-3.06l-27.54,2.06c1.23-.78,1.9-3.2,5-4,5.56-1.43,21.1-1.63,27-1Z"/>
  <path class="st25" d="M656,453l.69-6.82,20.31-35.18-4.72,35.77c-1.61,3.52-12.24,7.01-16.27,6.23Z"/>
  <path class="st10" d="M655,349l-1,37c-2.84,6.38-1.56,6.49,0,11,.91,2.63.38,37.71,0,43-.3,4.2-1.43,5.67-2,9-1.58-2.78-1.88-6.31-2.05-9.45-1.31-25.36-.32-52.74,1.09-78,.23-4.15-.24-8.39-.04-12.54,1.03.07,3.2.21,4,0Z"/>
  <path class="st10" d="M490,203c-20.45,6.98-40.46,11.31-61,1,.21-.07,3.81-1.88,4-2,9.93,2.66,19.07,4.86,29.54,4.04,6.66-.53,14.67-4.69,19.46-5.04,2.01-.14,5.26,2.9,8,2Z"/>
  <path class="st19" d="M502,197l16.51-17.99c1.97-.35,1.22.31,1.7,1.25,2.73,5.44,3.88,11.34,8.79,15.74-5.9-.63-21.44-.43-27,1Z"/>
  <path class="st10" d="M658,269c-.21,4.48.28,9.05.04,13.54-.07,1.3-1.04,2.61-1.04,2.96v20c0,2.82-.58,11.49-1,14.5-.5,3.63-2.75,5.36-4,8l2-58c.35-.01,2.98-.79,4-1Z"/>
  <path class="st2" d="M656,457c5.62.98,9.95-2.56,14.99-4,1.94,2.12-11.15,24.33-12.99,28l-2-24Z"/>
  <path class="st16" d="M691,337c-2.51-15.85-3.33-31.95-3-48,7.14,22.08,6.71,24.98,3,48Z"/>
  <path class="st19" d="M414,192c-8.25-5.41-17.67-3.85-27-4,10.77-7.26,19.45-15.57,26.52,1.01.45,1.06.22,2.38.48,2.99Z"/>
  <path class="st2" d="M660,504c-1.67-4.82-.83-9.99-1-15l9.99-19.99c-2.5,8.96-2.02,20.33-4.42,29.06-1.13,4.12-2.62,3.71-4.57,5.93Z"/>
  <path class="st9" d="M414,192c.7,1.65,1.29,3.35,2,5-3.78-1.06-7.15-3.58-10.94-4.56-5.49-1.41-19.7-1-25.06.56,1.55-2.66,4.67-3.43,7-5,9.33.15,18.75-1.41,27,4Z"/>
  <path class="st10" d="M656,457l2,24c-.99,1.98-2.02,4.03-3,6-.99-.24-.92-1.16-1-2-1.01-10.37-2.2-20.6-2-31l4,3Z"/>
  <path class="st2" d="M651,218l-8-6c.47-.42,3.73-6.07,5-7.5,1.82-2.04,4.35-2.74,5.49-5.5,3.89,1.56-1.83,15.7-2.5,19Z"/>
  <path class="st20" d="M428,216c-20.64-1.21-41.33-3.37-62-4,.25-.7.99-1.89,1-2l24.49,1.01,36.51,4.99Z"/>
  <path class="st10" d="M658,208c.07-2.19.44-4.45.98-6.56.42-1.67-1-2.92,2.02-2.43-.26,2.94-1.3,5.41-1.05,8.49.21,2.57,1.81,4.06,2.06,5.5.87,5.16-1.78,10.71-1,16-.5.8-.36,2.64-1.17,3.85-.32.48-1.7.02-1.83.15v-25Z"/>
  <path class="st2" d="M670.99,260.01l-7.94,3.54c-5.19-.65-10.76,4.68-15.48,1.37-3.11-2.19-1.43-6.8.93-8.92.99,2.21,4.99,6.41,7.25,6.85,1.8.35,11.12-5.2,15.24-2.85Z"/>
  <path class="st2" d="M666.99,514.99c-1.72.25-1.06-2.37-.97-3.47.21-2.72,1.1-5.75,1.51-8.5l11.46-11.02c-2.46,8.42-8.34,15.17-12,22.99Z"/>
  <path class="st10" d="M660,257c-1.28.16-3.16,1.62-5,1,1.59-4.5.88-9.31,1-14,1.67-2.66,3.46-4.65,5-7l-1,20Z"/>
  <path class="st9" d="M658,527c-.93,2.93-3.45,4.68-5,7,1.23-6.23,2.18-12.64,2-19,1.22-1.03,2.61-2.69,4-4-.18,4.86.46,11.38-1,16Z"/>
  <path class="st2" d="M658,233c-.15.16-.86,2.44-2,4,.06-3.61.21-7.93-2-11,.98-5.94,1-12.43,4-18v25Z"/>
  <path class="st2" d="M661,229c-.78-5.29,1.87-10.84,1-16,12.39,1.83,2.32,10.7-1,16Z"/>
  <path class="st10" d="M656,344c-.99.35-5.92,2.13-6.01.49.57-3.17,1.28-6.49,2.53-9.47,1.08-2.58,2.98-3.99,3.49-5.02v14Z"/>
  <path class="st23" d="M660,504c-1.54,1.75-2.34,2.47-4,4-.1-1.99.15-4.02,0-6-.13-1.72-.5-3.36-1-5,1.27-2.62,2.74-5.49,4-8,.17,5.01-.67,10.18,1,15Z"/>
  <path class="st17" d="M368,196c-7.36,4.79-8.59,7.81-19.5,6-1.46-.4.48-.95.5-1l19-5Z"/>
  <path class="st7" d="M656,502l-7,12-2.85.67c2-6.35,6-11.8,8.85-17.67.5,1.64.87,3.28,1,5Z"/>
  <path class="st2" d="M659,511c.59-.55,4.33-5.82,4.02-1.5-.38,5.26-1.34,13.75-5.02,17.5,1.46-4.62.82-11.14,1-16Z"/>
  <path class="st7" d="M656,237c-1.16,1.58-1.58,4.3-3.99,5-1.28-5.89,1.15-10.91,1.99-16,2.21,3.07,2.06,7.39,2,11Z"/>
  <path class="st16" d="M645,202c-3.47,4.41-10.29,13.64-9,0h9Z"/>
  <path class="st2" d="M655,258c-6.39-5.12-1.98-9.26,1-14-.12,4.69.59,9.5-1,14Z"/>
  <path class="st10" d="M636,202c.05-.57-.29-1.44.12-1.85l11.37-2.16c1.96,1.83-1.86,3.21-2.49,4.01h-9Z"/>
  <path class="st10" d="M651,548c.96-.56,1.8-4.13,4.99-3,.26,1.91-.18,3.32-.99,5-1.12,2.32-3.21,2.9-4,4v-6Z"/>
  <path class="st8" d="M353,210c2.1-1.86,5.68-3.9,8.48-4.03,3.36-.17.89,2.91.52,4.03-2.97.17-6.05-.25-9,0Z"/>
  <path class="st2" d="M656,508c-2.1,1.93-3.51,5.21-7,6l7-12c.15,1.98-.1,4.01,0,6Z"/>
  <path class="st25" d="M677.5,409c.65.33.65.67,0,1v-1Z"/>
  <path class="st21" d="M914,470c1.2.27,2.75,2.36,4.71,2.79,2.32.51,11.46,1.69,11.29-2.79,9.46.78,19.93-.47,29.54-.04,4.32.19,8.84,1.83,13.46,1.04-1.34,6-3.59,8.05-6,13l-156,7c-4.19-5.68-5.61-10.02-4-17,6.82-.22,13.71.29,20.54.04,1.31-.05,2.59-1.04,2.96-1.04h17c6.12,0,14.73-1.66,21.5-2,10.71-.53,35.57-3.11,45-1Z"/>
  <path class="st12" d="M914,470c-.62-7.41,3.4-10.19,8.98-13.52,18.16-10.85,63.63-18.98,55.02,15.52-.76,3.03-3.55,8.92-5,12-4.4,9.35-33.15,51.11-.02,36.48,10.27-4.53,20.08-15.67,29.3-19.7,1.39-.61,2.67-.97,4.21-.79.93.04.63,1.8.39,2.39-.66,1.67-25.88,19.12-29.2,20.8-18.04,9.12-30.69,5.16-21.86-16.86,2.88-7.18,7.66-15.09,11.17-22.33,2.41-4.95,4.66-7,6-13,2.46-11.01,1.42-17.89-11.46-19.04-12.01-1.07-24.83,1.75-35.21,7.87-3.04,1.79-7.8,4.1-7.33,8.16,2.86,1.46,6.35.03,8.43.27,1.43.16,2.41,1.73,2.57,1.74.17,4.48-8.97,3.31-11.29,2.79-1.96-.43-3.51-2.53-4.71-2.79Z"/>
  <path class="st21" d="M1057,472c-1.28,6.66-2.88,8.32-6,14-25.85-3.1-51.99-1.71-78-2,1.45-3.08,4.24-8.97,5-12h79Z"/>
  <path class="st15" d="M849,460c2.53.19,10.17,2.6,12.68,3.82,2.67,1.3,6.92,3.96,7.32,7.18-6.77.34-15.38,2-21.5,2h-17c-.37,0-1.65.99-2.96,1.04-6.82.25-13.72-.25-20.54-.04,1.12-4.83,2.93-6.46,5-10,10.53-1.65,20.95-2.58,31.58-2.96,1.3-.05,2.29-1.04,2.42-1.04.99,0,2.02-.07,3,0Z"/>
  <path class="st17" d="M878,443l-38,3c-.85-1.97-3.11-3.03-4-5,14.07.32,27.31,2.18,42,2Z"/>
  <path class="st15" d="M1164,490c-7.38,3.74-20.74,30.07-6.43,30.99,8.71.56,6.31-9.3,7.94-12.98,2.11-4.75,9.32-8.1,12.49-17.01l44,2c-3.11,10.08-11.42,19.97-14,30-3.65.09-7.35-.13-11,0-5.24-4.49-6.1-16.48-14-15.01.56,5.9-2.06,11.12-5,16.01-6.54.44-12.57,1.35-19,2-7.89-2.37-16.36-2.14-24.54-2.04-15.94.2-33.02.11-49,1-17.46.97-34.91,5.47-52.46,6.04-.43-.41-1.01-1.01-1-1.59.14-9.47,19.85-33.5,25-43.41,3.94.88,9.54,1.79,13.51,1.99,31.39,1.57,62.34-1.59,93.49,2.01Z"/>
  <path class="st15" d="M1253,491c8.15,9.56,17.93,19.28,27,28l-9.88,3.14-.12,1.86c-18.99.09-38.01-.06-57,0,2.58-10.8,11.19-20.67,14-31,8.92.1,17.37.5,26-2Z"/>
  <path class="st14" d="M1182,448c3.38-.31,9.72-.41,13,0,7.08.88,15.23,7.11,20,12l-52,10c-3.14,0-5.73,1.04-8.46,1.04-15.51.01-31.04-.09-46.54-.04-1.59-5.43-1.52-12.17,1.5-16.98,5.08,6.87,16.07,3.3,24.01,3.97,2.65.22,4.68,1.63,7.07,1.93,13.77,1.73,28.84-10.78,41.42-11.92Z"/>
  <path class="st21" d="M1103,471c3.37,22.4,43.99,7.45,57.62,6.12,12.78-1.25,18.71-.41,12.38,12.88-1.99-.07-4.01.11-6,0-.99-.05-2.03.11-3,0-31.15-3.6-62.1-.44-93.49-2.01-3.97-.2-9.57-1.11-13.51-1.99,1.25-2.4,5.67-12.87,6-15h40Z"/>
  <path class="st21" d="M1163,470c.18,0,1.54,1.07,3.38,1.07,18.54,0,37.09-.16,55.62-.07,2.88,8.6,2.69,13.28,0,22l-44-2c10.73-30.22-27.72-15.42-42.79-13.29-8.82,1.25-24,4.26-27.21-6.71,15.5-.05,31.03.05,46.54.04,2.73,0,5.33-1.04,8.46-1.04Z"/>
  <path class="st11" d="M1305,508c-.21,3.98-4.12,12.01-3.74,15.38.35,3.03,7.27,9.66,5.74,14.62-4.73-2.03-9.38-2.28-14.49-2.01-1.88,7.01,10.71,3.72,15.04,6.96s4.03,11.29-3.03,12.05c-9.44,1.02-24.5-1.81-25.56-13.5-.23-2.56-.03-7.26,2.75-8.29,3.19-1.18,6.77.94,4.29-5.21,9.14-.76,3.35-4.38,4-7,.21-.86,11.66-8.91,10-14,1.67.27,2.72.86,5,1Z"/>
  <path class="st5" d="M1246,470c3.98,7.94,3.76,9.5,10,17,8.41,10.12,18.25,20.16,28,29,1.85,1.68,3.28,3.96,6,5-.65,2.62,5.14,6.24-4,7-1.96.16-4.02-.04-6,0-6.65.13-13.35-.04-20,0-15.98.09-32.02-.07-48,0,.26-1.68.67-2.62,1-4,18.99-.06,38.01.09,57,0,5.32-.02,10.67.03,15.99-.01-1.34-1.92-4.23-3.29-5.99-4.99-9.07-8.72-18.85-18.44-27-28-1.82-2.14-7.38-11.07-7.96-11.45-1.79-1.18-9.5,1.2-8.04-8.55.25-1.69,2.57-4.94,4.5-5.04,1.46,0,3.92,2.88,4.5,4.04Z"/>
  <path class="st15" d="M1215,460c4.23,4.34,4.96,4.91,7,11-18.53-.08-37.08.08-55.62.07-1.84,0-3.2-1.07-3.38-1.07l52-10Z"/>
  <path class="st21" d="M1237,471c-1.46,9.75,6.25,7.37,8.04,8.55.58.38,6.14,9.31,7.96,11.45-8.63,2.5-17.08,2.1-26,2,1.99-7.3,2.12-14.75,0-22h10Z"/>
  <path class="st5" d="M1197,523c3.65-.13,7.35.09,11,0-.2.78-.9,4.23-1,5-11.72-.34-23.34.16-35,1s-22.76,2.3-34,4c.43-2.72-3.62-3.45-6-4,8.95-1.43,17.98-2.09,27-3,6.43-.65,12.46-1.56,19-2s12.72-.77,19-1Z"/>
  <path class="st15" d="M1292,505l-8,11c-9.75-8.84-19.59-18.88-28-29l4-5c7.56,11.4,19.29,18.48,32,23Z"/>
  <path class="st15" d="M1239,455c4.39,3.26,6.38,4.69,10,9,.2,2.46-1.26,4.45-3,6-.58-1.16-3.04-4.04-4.5-4.04-1.94.11-4.25,3.35-4.5,5.04h-10c-1.15-3.92-3.5-8.79-6-12l18-4Z"/>
  <path class="st14" d="M1230,449c3.34,1.71,6.02,3.79,9,6l-18,4c-3.67-4.72-8.74-7.12-13-11,.98.23,2.14,1.23,3.45,1.01h18.55Z"/>
  <path class="st21" d="M1260,482l-4,5c-6.24-7.5-6.02-9.06-10-17,1.74-1.55,3.2-3.54,3-6,5.28,6.29,7.08,12.09,11,18Z"/>
  <path class="st14" d="M1300,507c1.66,5.09-9.79,13.14-10,14-2.72-1.04-4.15-3.32-6-5l8-11c3.28,1.17,4.58,1.44,8,2Z"/>
  <path class="st19" d="M1230,449h-18.55c-1.31.23-2.47-.77-3.45-1-3.25-.76-7.38-2.36-10-4.5,10.58-2.98,22.41.58,32,5.5Z"/>
  <path class="st21" d="M1263,476c-3.2-4.78-7.47-11.82-11-16l4-5c.17.17.82-.17,1,0,4.22,4,6.97,15.29,6,21Z"/>
  <path class="st15" d="M1173,490c-.91,1.9-1.35,3.95-3.03,5.47l-12.46,12.54c-1.27-7.65,9.36-11.14,9.49-18.01,1.99.11,4.01-.07,6,0Z"/>
  <path class="st24" d="M1195,448c-3.28-.41-9.62-.31-13,0,3.1-4.25,9.61-3.72,13,0Z"/>
  <path class="st25" d="M677,545c-.94,12.93,2.5,25.19,11,35-9.07,1.63-18.06,3.16-27,1-1.05-3.76,8.32-11.96,8-13.48-.93-4.3-12.15,2.31-12.99,1.48l3-14.99c6.78-4.88,10.62-5.83,18-9Z"/>
  <path class="st1" d="M659,554l-3,14.99c.84.83,12.06-5.78,12.99-1.48.33,1.53-9.04,9.72-8,13.48-1.64-.4-3.58-.05-5-1.53-5.56-7.89-7.95-16.58-.03-24.05,1.16-1.1,2.48-1.02,3.03-1.42Z"/>
  <path class="st14" d="M713,471l2.93,11.91c-4.95,1.04-7.75,5.63-10.93,9.09-.06-3.67,1.35-10.14-2-12,3.55-4.58,5.73-5.75,10-9Z"/>
  <path class="st5" d="M705,492c.1,6.65-.07,13.35,0,20-2-3.41-2.51-4.39-4-8v-21c.71-1.24,1.12-1.87,2-3,3.35,1.86,1.94,8.33,2,12Z"/>
  <path class="st1" d="M649,577c-4.9.58-7.83,5.76-12.99,4.99-1.17-3.97,3.57-4.39,4.54-6.01.57-.95-.59-2.47.32-4.52s4.36-5.72,6.14-7.46c-.51,5.95,1.48,8.35,2,13Z"/>
  <path class="st1" d="M649,579c2.05,1.37,4.68,5.16,7,6l-6.12,10.87-2.92-.33c-2.47-1.8,1.87-12.98,2.04-16.54Z"/>
  <path class="st5" d="M701,530v-15c1.82,3.53,8.74,10.28,3.54,14.08-1.5,1.09-2.81.58-3.54.92Z"/>
  <path class="st14" d="M701,504c-.72-1.76-2.28-2.84-2.76-5.74-1.17-7.05-.52-9.54,2.76-15.26v21Z"/>
  <path class="st21" d="M802,474c-1.04,6.39.48,12.68,4,18-9.88-.2-19.62,1.63-29.54,1.04-13.06-.78-18.41-2.41-32.04-1.12-10.95,1.03-20.3-.45-27.41-9.42,27.7-6.14,56.67-6.43,85-8.5Z"/>
  <path class="st14" d="M846,460c-.13,0-1.12.99-2.42,1.04-10.63.38-21.05,1.31-31.58,2.96,4.75-8.12,7.53-13.36,16.48-17.31.6-.26.4-1.34,1.01-1.45.79-.13,4.43.08,5.07.62,2.78,6.33,2.26,14.26,11.44,14.14Z"/>
  <path class="st23" d="M352.74,367.17c7.11-1.45,15.45,6.76,17.56,13.03,3.23,9.57,1.42,28.99-7.26,35.34-9.46,6.91-16.54-4.07-18.59-12.49-1.66-6.84-1.06-22.42.99-29.11.69-2.25,4.96-6.3,7.3-6.77ZM359.81,374.73c-2.85,1.84-6.13-3.22-8.31-.76-4.47,5.06-4.83,22.57-3.04,29.07,3.15,11.41,11.6,15.88,16.71,2.63,3.92-10.16,4.91-25.27-4.68-32.67-.87-.34-.23,1.43-.69,1.73Z"/>
  <path class="st10" d="M333,261c-1.89,4.49-.94,10.89-1,16-.16,13.52-2,24.9-3,38-.25,3.26-.87,6.44-1.04,9.46-2.2,39.76.25,87.9,2,128.08.2,4.47.69,9.89,1.04,14.46h-4c-.02-58.53-.9-117.37-1-176,3.03.56,1.93-1.53,2-3.46.3-7.98.64-15.88,1.21-23.83,1.36-2.46,1.72-2.84,3.79-2.71Z"/>
  <path class="st19" d="M330,495c-.32.13-2.39,3.84-4,4,0-6.65,0-13.35,0-20l3-2c-.62,6.06,1.62,11.93,1,18Z"/>
  <path class="st1" d="M331,467c.04.54.95,1.45,1,2-1.79,2.36-2.7,5.06-3,8l-3,2c0-4.19,1-8.67,1-12h4Z"/>
  <path class="st10" d="M334,495c-.79-.09-3.57-.18-4,0,.62-6.07-1.62-11.94-1-18,.3-2.94,1.21-5.64,3-8,.76,8.64,1,17.38,2,26Z"/>
  <path class="st2" d="M352,263c10.44-.28,12.14-4.15,18.45-5.04,2.47-.35,22.76,1.17,23.55,2.05l-1.64,8.05c-13.03,1.92-26.29,2.45-39.36,3.94-.25-3.04-.62-5.99-1-9Z"/>
  <path class="st20" d="M628,208c-29.85,2.42-60.57,9.47-91,9,7.36-1.79,15.12-2.87,22.64-3.86,22.65-2.98,45.47-5.68,68.36-5.14Z"/>
  <path class="st2" d="M524,218l-21.63,3.87c-15.57-.29-31.34-1.3-46.86-2.88-3.51-.36-8.26-.85-11.51-1.99l80,1Z"/>
  <path class="st14" d="M973,471c-4.62.79-9.14-.85-13.46-1.04-9.62-.43-20.08.82-29.54.04-.16-.01-1.14-1.58-2.57-1.74-2.08-.24-5.57,1.19-8.43-.27-.47-4.05,4.29-6.37,7.33-8.16,10.38-6.12,23.2-8.94,35.21-7.87,12.88,1.15,13.92,8.03,11.46,19.04Z"/>
  <path class="st18" d="M1197,523c-6.28.23-12.73.58-19,1,2.94-4.89,5.56-10.11,5-16.01,7.9-1.47,8.76,10.52,14,15.01Z"/>
  <path class="st14" d="M1280,519c1.77,1.7,4.65,3.07,5.99,4.99-5.32.04-10.67-.01-15.99.01l.12-1.86,9.88-3.14Z"/>
  <path class="st2" d="M359.81,374.73c.46-.3-.18-2.07.69-1.73,9.58,7.4,8.6,22.51,4.68,32.67-5.11,13.25-13.57,8.78-16.71-2.63-1.79-6.49-1.43-24.01,3.04-29.07,2.18-2.47,5.46,2.59,8.31.76Z"/>
</svg>